<svg width="35" height="35" viewBox="0 0 35 35" fill="none" xmlns="http://www.w3.org/2000/svg">
<path d="M17.4974 0C17.4879 0 17.4689 0 17.4404 0C7.82205 0 0 7.68096 0 17.1258C0 20.9803 1.34011 24.7228 3.79222 27.7373L1.25457 33.533C1.04547 34.009 1.27358 34.5597 1.74879 34.7556C1.91987 34.8303 2.10996 34.849 2.29054 34.821L11.5953 33.2157C13.4581 33.8784 15.416 34.2143 17.3929 34.205C27.0112 34.205 34.8333 26.524 34.8333 17.0792C34.8523 7.66229 27.0873 0.00933288 17.4974 0ZM11.5287 13.682H16.6611C17.1838 13.682 17.6115 14.102 17.6115 14.6153C17.6115 15.1286 17.1838 15.5486 16.6611 15.5486H11.5287C11.006 15.5486 10.5783 15.1286 10.5783 14.6153C10.5783 14.102 11.006 13.682 11.5287 13.682ZM23.3141 20.215H11.5287C11.006 20.215 10.5783 19.795 10.5783 19.2817C10.5783 18.7684 11.006 18.3484 11.5287 18.3484H23.3141C23.8368 18.3484 24.2645 18.7684 24.2645 19.2817C24.2645 19.795 23.8368 20.215 23.3141 20.215Z" fill="#213551"/>
</svg>
