<svg width="32" height="32" viewBox="0 0 32 32" fill="none" xmlns="http://www.w3.org/2000/svg">
<g clip-path="url(#clip0_27_639)">
<path d="M15.9996 0C7.16335 0 0 7.16367 0 15.9998C0 24.8358 7.16335 31.9999 15.9996 31.9999C24.8358 31.9999 32 24.8358 32 15.9998C31.9999 7.16367 24.8358 0 15.9996 0ZM11.8366 11.2382C12.0579 11.0168 12.3478 10.9062 12.6377 10.9062C12.9277 10.9062 13.2174 11.0168 13.4386 11.2382L14.857 12.6563V12.2391V6.66426C14.857 6.03844 15.3641 5.53134 15.9899 5.53134C16.6157 5.53134 17.1228 6.03844 17.1228 6.66426V12.239V12.7329L17.6167 12.239L18.6178 11.238C18.8392 11.0167 19.1288 10.9061 19.4187 10.9061C19.7086 10.9061 19.9985 11.0167 20.2199 11.238C20.4921 11.5099 20.5956 11.8865 20.5327 12.239C20.5327 12.2393 20.5324 12.2395 20.5324 12.2399C20.5277 12.2654 20.5197 12.2899 20.5133 12.3149C20.5036 12.3539 20.4932 12.3926 20.479 12.4305C20.4696 12.456 20.4588 12.4808 20.4474 12.5057C20.4297 12.5453 20.4092 12.5831 20.3868 12.6208C20.3749 12.6407 20.3639 12.6606 20.3505 12.6797C20.3118 12.7356 20.2695 12.7897 20.2197 12.8396L18.6074 14.4518L16.8377 16.2215C16.6161 16.4429 16.3264 16.5527 16.0368 16.5527C16.034 16.5527 16.0313 16.5527 16.0285 16.5527C16.0257 16.5527 16.0227 16.5527 16.0202 16.5527C15.7306 16.5527 15.4409 16.4429 15.2193 16.2215L13.4496 14.4518L11.8373 12.8396C11.7875 12.7897 11.7451 12.7358 11.707 12.68C11.6934 12.6604 11.6823 12.6402 11.6702 12.6202C11.6481 12.5829 11.6278 12.5453 11.6101 12.5062C11.5985 12.4807 11.5874 12.4555 11.578 12.4296C11.5645 12.3925 11.5542 12.355 11.5445 12.317C11.5379 12.2907 11.5293 12.2653 11.5246 12.2387C11.4608 11.8866 11.564 11.51 11.8366 11.2382ZM24.7014 22.3271H24.7011C24.7011 23.8564 23.2016 25.0544 21.2872 25.0544H10.713C8.79889 25.0544 7.29914 23.8565 7.29914 22.3271V14.9665C7.29914 13.674 8.372 12.6211 9.85959 12.3253C9.92401 12.9633 10.2035 13.5548 10.6632 14.0143L11.1014 14.4525H10.713C9.93809 14.4525 9.51238 14.8387 9.51238 14.9665V22.3271C9.51238 22.4552 9.9382 22.8411 10.713 22.8411H21.2875C22.0624 22.8411 22.4882 22.4549 22.4882 22.3271V14.9665C22.4882 14.8387 22.0623 14.4525 21.2875 14.4525H20.9547L21.3932 14.014C21.85 13.5575 22.1286 12.9701 22.1949 12.3364C23.6542 12.6471 24.7014 13.69 24.7014 14.9668V22.3271Z" fill="#3DBCD3"/>
</g>
<defs>
<clipPath id="clip0_27_639">
<rect width="32" height="32" fill="white"/>
</clipPath>
</defs>
</svg>
