<svg width="28" height="28" viewBox="0 0 28 28" fill="none" xmlns="http://www.w3.org/2000/svg">
<path d="M6.4375 21.5625C8.5625 23.6458 11.0833 24.6875 14 24.6875C16.9167 24.6875 19.4167 23.6458 21.5 21.5625C23.625 19.4375 24.6875 16.9167 24.6875 14C24.6875 11.0833 23.625 8.58333 21.5 6.5C19.4167 4.375 16.9167 3.3125 14 3.3125C11.0833 3.3125 8.5625 4.375 6.4375 6.5C4.35417 8.58333 3.3125 11.0833 3.3125 14C3.3125 16.9167 4.35417 19.4375 6.4375 21.5625ZM4.5625 4.625C7.1875 2 10.3333 0.6875 14 0.6875C17.6667 0.6875 20.7917 2 23.375 4.625C26 7.20833 27.3125 10.3333 27.3125 14C27.3125 17.6667 26 20.8125 23.375 23.4375C20.7917 26.0208 17.6667 27.3125 14 27.3125C10.3333 27.3125 7.1875 26.0208 4.5625 23.4375C1.97917 20.8125 0.6875 17.6667 0.6875 14C0.6875 10.3333 1.97917 7.20833 4.5625 4.625ZM15.3125 7.3125V12.6875L20.6875 12.6875V15.3125L15.3125 15.3125L15.3125 20.6875H12.6875L12.6875 15.3125H7.3125V12.6875H12.6875V7.3125H15.3125Z" fill="#3DBCD3"/>
</svg>
