<svg width="28" height="28" viewBox="0 0 28 28" fill="none" xmlns="http://www.w3.org/2000/svg">
<path d="M3.30501 14.0001C3.33447 16.9758 4.3804 19.4949 6.44279 21.5573C8.50519 23.6197 11.0095 24.6509 13.9558 24.6509C16.961 24.6509 19.4948 23.6197 21.5572 21.5573C23.6196 19.4949 24.6361 16.9758 24.6066 14.0001C24.6361 11.0243 23.6196 8.50525 21.5572 6.44285C19.4948 4.38046 16.961 3.34926 13.9558 3.34926C11.0095 3.34926 8.50519 4.38046 6.4428 6.44285C4.3804 8.50525 3.33447 11.0243 3.30501 14.0001ZM13.9558 0.697612C17.6681 0.697612 20.8206 1.99397 23.4134 4.5867C26.0061 7.17943 27.2877 10.3172 27.2583 14.0001C27.2877 17.6829 26.0061 20.8207 23.4134 23.4134C20.8206 26.0061 17.6681 27.3025 13.9558 27.3025C10.3024 27.3025 7.17937 26.0061 4.58664 23.4134C1.99392 20.8207 0.682821 17.6829 0.653358 14.0001C0.682821 10.3172 1.99391 7.17942 4.58664 4.5867C7.17936 1.99397 10.3024 0.697612 13.9558 0.697612ZM19.6569 10.1994L15.8562 14.0001L19.6569 17.8008L17.8007 19.6569L14 15.8562L10.1993 19.6569L8.34314 17.8008L12.1438 14.0001L8.34314 10.1994L10.1993 8.3432L14 12.1439L17.8007 8.3432L19.6569 10.1994Z" fill="#b2b8b9"/>
</svg>
