<svg width="32" height="32" viewBox="0 0 32 32" fill="none" xmlns="http://www.w3.org/2000/svg">
<path d="M16.5 25C16.2034 25 15.9134 24.8827 15.6666 24.6629C15.42 24.4432 15.2278 24.1309 15.1142 23.7653C15.0006 23.4 14.971 22.9979 15.0288 22.6099C15.0868 22.2219 15.2296 21.8656 15.4394 21.5859C15.6492 21.3061 15.9164 21.1155 16.2074 21.0384C16.4984 20.9613 16.8 21.0008 17.074 21.1523C17.3482 21.3037 17.5824 21.56 17.7472 21.8888C17.912 22.2179 18 22.6045 18 23C17.9948 23.5283 17.8352 24.0331 17.555 24.4067C17.2748 24.7803 16.8962 24.9931 16.5 25Z" fill="white"/>
<path d="M17.0605 19C16.7628 19 16.4773 18.8588 16.2668 18.6072C16.0563 18.3558 15.938 18.0147 15.938 17.6591C15.938 17.3035 16.0563 16.9624 16.2668 16.711C16.4773 16.4595 16.7628 16.3182 17.0605 16.3182C17.75 16.2573 18.3946 15.887 18.8652 15.2818C19.3356 14.6766 19.597 13.8812 19.597 13.0554C19.597 12.2296 19.3356 11.4342 18.8652 10.829C18.3946 10.2238 17.75 9.85358 17.0605 9.79257C16.035 9.64046 14.999 9.95305 14.157 10.6686C13.8357 11.0667 13.5895 11.5423 13.4346 12.0634C13.2797 12.5845 13.2198 13.1391 13.259 13.6901C13.259 14.0457 13.1408 14.3868 12.9302 14.6382C12.7198 14.8897 12.4342 15.031 12.1366 15.031C11.8389 15.031 11.5534 14.8897 11.3429 14.6382C11.1324 14.3868 11.0141 14.0457 11.0141 13.6901C10.9565 12.744 11.0757 11.7944 11.363 10.9101C11.6503 10.0258 12.0985 9.22881 12.6754 8.57684C13.9505 7.39278 15.5588 6.84201 17.1653 7.03929C17.8093 7.0486 18.4454 7.20967 19.0371 7.51324C19.6289 7.81682 20.1647 8.25694 20.6138 8.80838C21.063 9.35981 21.4165 10.0117 21.6543 10.7267C21.8921 11.4417 22.0093 12.2056 21.9994 12.9749C22.0074 13.7582 21.8858 14.5357 21.6416 15.2629C21.3975 15.99 21.0357 16.6524 20.5769 17.2122C20.118 17.7717 19.5713 18.2178 18.9678 18.5246C18.3645 18.8314 17.7163 18.993 17.0605 19Z" fill="white"/>
<path d="M16.4925 31C14.0216 30.9825 11.5907 30.375 9.40206 29.2284C9.23868 29.1533 9.09226 29.0458 8.97165 28.9124C8.85106 28.779 8.75878 28.6225 8.70043 28.4525C8.64207 28.2826 8.61885 28.1024 8.63216 27.9231C8.64548 27.7438 8.69505 27.5691 8.77789 27.4095C8.8607 27.2501 8.97507 27.1089 9.11405 26.9948C9.25303 26.8807 9.41374 26.796 9.58643 26.7457C9.75913 26.6954 9.94022 26.6809 10.1188 26.7025C10.2973 26.7243 10.4696 26.782 10.6252 26.8722C13.1796 28.1835 16.0965 28.6133 18.9209 28.0946C21.1794 27.6466 23.2759 26.6004 24.9912 25.0654C26.7066 23.5305 27.9779 21.5631 28.672 19.369C29.3664 17.1751 29.458 14.8348 28.9376 12.5932C28.4171 10.3517 27.3038 8.291 25.7137 6.62667C24.1237 4.96235 22.1155 3.75551 19.899 3.13234C17.6826 2.50916 15.3394 2.49255 13.1144 3.08424C10.8893 3.67591 8.86416 4.85416 7.25068 6.49577C5.63719 8.13739 4.49462 10.1821 3.94243 12.4161C3.15412 15.7303 3.69493 19.2213 5.44915 22.1421C5.61581 22.4381 5.66277 22.7866 5.58034 23.1161C5.49793 23.4454 5.29242 23.7308 5.006 23.9137C4.70987 24.0802 4.36116 24.1271 4.03151 24.0448C3.70184 23.9624 3.41625 23.757 3.23339 23.4708C1.93881 21.3314 1.18244 18.9103 1.02911 16.4151C0.875758 13.9196 1.33001 11.4242 2.35292 9.14266C3.37586 6.86112 4.93695 4.86144 6.90249 3.31493C8.86802 1.76843 11.1794 0.72119 13.6386 0.262969C17.684 -0.491142 21.8635 0.391746 25.2576 2.7174C28.6516 5.04305 30.9823 8.62098 31.7369 12.6641C32.4915 16.7072 31.608 20.8842 29.2811 24.2763C26.954 27.6685 23.3741 29.9978 19.3286 30.752C18.3918 30.9135 17.4431 30.9966 16.4925 31Z" fill="white"/>
<path d="M3.52857 31.9992C3.11166 32.01 2.69902 31.9066 2.32909 31.6982C1.95919 31.4901 1.64408 31.1841 1.41316 30.8086C1.18222 30.4332 1.04301 30.0008 1.00848 29.5514C0.973957 29.1021 1.04524 28.6507 1.2157 28.2392L3.87637 21.8094C4.02169 21.4757 4.28214 21.2169 4.6019 21.0884C4.92166 20.9599 5.27528 20.9719 5.58693 21.1219C5.89858 21.2719 6.14345 21.5479 6.26905 21.8908C6.39465 22.2338 6.39098 22.6162 6.25881 22.9563L3.78942 29.0852L10.1716 26.6223C10.3357 26.5445 10.513 26.5039 10.6923 26.5035C10.8715 26.503 11.049 26.5424 11.2135 26.6193C11.378 26.6962 11.5261 26.809 11.6485 26.9506C11.7709 27.0922 11.865 27.2595 11.925 27.4422C11.9848 27.625 12.0093 27.819 11.9968 28.0122C11.9843 28.2057 11.9349 28.3941 11.852 28.5659C11.769 28.7378 11.6542 28.8891 11.5147 29.0109C11.3752 29.1326 11.214 29.2219 11.0411 29.2732L4.34591 31.8488C4.08427 31.9526 3.80723 32.0036 3.52857 31.9992Z" fill="white"/>
</svg>
