<svg width="16" height="16" viewBox="0 0 16 16" fill="none" xmlns="http://www.w3.org/2000/svg">
<circle cx="8" cy="8" r="8" fill="white"/>
<g clip-path="url(#clip0_510_71)">
<path d="M9.65492 5.75525C9.54639 5.73845 9.43633 5.72457 9.32627 5.71288C9.30881 5.71069 9.29212 5.70922 9.27466 5.70776L11.0082 8.39685C11.0348 8.43922 11.0826 8.46479 11.1342 8.46479C11.1616 8.46479 11.1889 8.45749 11.2132 8.44288C11.283 8.40197 11.3035 8.31357 11.261 8.24636L9.65568 5.75525H9.65492Z" fill="#3DBCD3"/>
<path d="M12.9171 6.50994C12.883 6.48218 12.8481 6.45442 12.8132 6.42812C12.6894 6.33315 12.5627 6.24183 12.4329 6.15563C12.2818 6.05555 12.1247 5.96058 11.9676 5.87292L11.8598 5.53906C11.8371 5.46893 11.7854 5.41049 11.7187 5.37834L11.33 5.19425L11.4887 5.68809C10.7805 5.36666 10.0245 5.1716 9.23896 5.10951L7.27691 2.06684C7.26325 2.04566 7.24503 2.02885 7.22302 2.01717C7.15622 1.98137 7.06514 2.00329 7.02492 2.06684L5.07805 5.08613L4.25907 6.3558C4.4678 6.18339 4.68791 6.0234 4.91638 5.87876L5.29512 5.29068L7.15091 2.41311L8.87767 5.09125C8.81846 5.08978 8.7585 5.08905 8.6993 5.08905C7.61922 5.08905 6.55812 5.34547 5.61315 5.8342C5.53345 5.87511 5.45604 5.91748 5.37786 5.96204C5.35053 5.97811 5.32245 5.99345 5.29512 6.01026C4.92549 6.22795 4.57634 6.48218 4.25755 6.76709C4.03972 6.96141 3.83478 7.17034 3.64655 7.39242C3.54104 7.51588 3.44086 7.643 3.34598 7.77376C3.23364 7.9279 3.12738 8.08862 3.03023 8.25153C3.01049 8.2844 3.00518 8.32312 3.01581 8.36038C3.02643 8.3969 3.05072 8.42759 3.08564 8.44658C3.10841 8.459 3.13345 8.46557 3.15926 8.46557C3.21239 8.46557 3.26173 8.43854 3.28829 8.39398C3.38165 8.23765 3.4826 8.08424 3.59114 7.93594C3.60936 7.91037 3.62757 7.88553 3.64731 7.86069C4.10196 7.25727 4.66211 6.74809 5.29512 6.35068C5.39911 6.28494 5.50537 6.22284 5.61315 6.1644C6.54218 5.65449 7.60328 5.37469 8.6993 5.37469C8.82833 5.37469 8.95736 5.37908 9.0864 5.38638C9.17672 5.39222 9.26932 5.39953 9.3604 5.40903C10.1521 5.49012 10.9073 5.71074 11.6056 6.06578C11.6215 6.10961 11.6534 6.14613 11.6966 6.16951C11.7293 6.18777 11.7627 6.20531 11.7953 6.2243L11.3703 6.27544C11.3627 6.27544 11.3551 6.27763 11.3475 6.27909L11.2792 6.29443L11.5532 6.54427C11.6132 6.59906 11.6944 6.62536 11.7779 6.61514L12.3175 6.55012C12.4359 6.63267 12.5513 6.71887 12.6606 6.80654C12.7418 6.87301 12.8746 6.86133 12.9429 6.78243C13.0143 6.70061 13.0021 6.57861 12.9171 6.51067V6.50994Z" fill="#3DBCD3"/>
<path d="M2.39772 10.6276V11.2764C2.39772 11.3202 2.40835 11.3516 2.4296 11.3713C2.45085 11.3903 2.48729 11.3998 2.5389 11.3998H2.69374V11.6022H2.49488C2.38178 11.6022 2.2945 11.5766 2.23378 11.5255C2.17306 11.4743 2.14345 11.391 2.14345 11.2764V10.6276H2V10.4297H2.14345V10.1382H2.39772V10.4297H2.69374V10.6276H2.39772Z" fill="#213551"/>
<path d="M3.03224 11.5459C2.93964 11.4955 2.86602 11.4246 2.81364 11.3333C2.76051 11.242 2.73395 11.1361 2.73395 11.0155C2.73395 10.895 2.76127 10.7905 2.81592 10.6985C2.87057 10.6064 2.94495 10.5356 3.03907 10.4859C3.13319 10.4362 3.23869 10.4114 3.35558 10.4114C3.47247 10.4114 3.57721 10.4362 3.67133 10.4859C3.76545 10.5356 3.83983 10.6064 3.89448 10.6985C3.94913 10.7905 3.97645 10.8965 3.97645 11.0155C3.97645 11.1346 3.94837 11.2405 3.8922 11.3326C3.83603 11.4246 3.76013 11.4962 3.66374 11.5466C3.56734 11.597 3.46032 11.6219 3.34419 11.6219C3.22807 11.6219 3.1256 11.597 3.03224 11.5466V11.5459ZM3.52636 11.3662C3.58328 11.3362 3.62882 11.2917 3.6645 11.2325C3.70017 11.1726 3.71763 11.1003 3.71763 11.0155C3.71763 10.9308 3.70093 10.8585 3.66677 10.7993C3.63262 10.7401 3.58784 10.6963 3.53167 10.6663C3.4755 10.6364 3.41554 10.6218 3.35027 10.6218C3.28499 10.6218 3.22503 10.6364 3.17038 10.6663C3.11573 10.6963 3.07095 10.7401 3.03907 10.7993C3.00643 10.8585 2.99049 10.9301 2.99049 11.0155C2.99049 11.1419 3.02389 11.2391 3.09144 11.3077C3.15824 11.3764 3.24249 11.4107 3.34419 11.4107C3.40871 11.4107 3.47019 11.3961 3.52636 11.3662V11.3662Z" fill="#213551"/>
<path d="M5.219 10.4304V11.6029H4.96701V11.4649C4.92754 11.5131 4.87517 11.5511 4.81141 11.5788C4.74766 11.6066 4.67934 11.6205 4.60724 11.6205C4.5116 11.6205 4.42583 11.6015 4.34993 11.5627C4.27403 11.5248 4.21407 11.4678 4.1708 11.3925C4.12754 11.3173 4.10553 11.2267 4.10553 11.12V10.4304H4.35525V11.0835C4.35525 11.1887 4.38257 11.2691 4.43722 11.3246C4.49187 11.3808 4.56625 11.4086 4.66037 11.4086C4.75449 11.4086 4.82963 11.3808 4.88504 11.3246C4.94044 11.2683 4.96777 11.188 4.96777 11.0835V10.4304H5.21976H5.219Z" fill="#213551"/>
<path d="M5.83909 10.4611C5.90057 10.4274 5.97268 10.4114 6.05693 10.4114V10.6627H5.99317C5.8945 10.6627 5.81936 10.6868 5.76851 10.735C5.71765 10.7832 5.69261 10.8672 5.69261 10.9863V11.6036H5.44061V10.4311H5.69261V10.6013C5.7298 10.5414 5.77837 10.4954 5.83985 10.4618L5.83909 10.4611Z" fill="#213551"/>
<path d="M6.36278 11.5715C6.28688 11.5379 6.22692 11.4926 6.18289 11.4356C6.13887 11.3779 6.11534 11.3143 6.1123 11.2427H6.37341C6.37796 11.2924 6.40225 11.334 6.44779 11.3669C6.49257 11.4005 6.54874 11.4166 6.61705 11.4166C6.68536 11.4166 6.74304 11.4034 6.78175 11.3771C6.82046 11.3508 6.8402 11.3172 6.8402 11.2763C6.8402 11.2325 6.81819 11.1996 6.77492 11.1784C6.73166 11.1573 6.66259 11.1339 6.56847 11.1083C6.47739 11.0842 6.40301 11.0608 6.34532 11.0382C6.28764 11.0155 6.2383 10.9805 6.1958 10.9337C6.15405 10.887 6.1328 10.8249 6.1328 10.7489C6.1328 10.6868 6.15177 10.6291 6.19048 10.5779C6.22843 10.5261 6.28384 10.4852 6.35519 10.4559C6.42654 10.4267 6.50851 10.4114 6.60187 10.4114C6.74077 10.4114 6.85234 10.445 6.93659 10.5122C7.0216 10.5794 7.06638 10.6714 7.07246 10.7876H6.82046C6.81591 10.735 6.7939 10.6934 6.75443 10.6619C6.71496 10.6305 6.66107 10.6152 6.59276 10.6152C6.52445 10.6152 6.47587 10.6276 6.4402 10.6517C6.40452 10.6758 6.38707 10.708 6.38707 10.7474C6.38707 10.7788 6.39921 10.8051 6.42274 10.8263C6.44627 10.8475 6.47511 10.8643 6.50927 10.8767C6.54342 10.8891 6.59352 10.9038 6.65955 10.9227C6.74836 10.9454 6.82046 10.9688 6.87739 10.9921C6.93432 11.0155 6.98289 11.0499 7.02464 11.0952C7.06563 11.1404 7.08688 11.2011 7.0884 11.2763C7.0884 11.3428 7.06942 11.4027 7.03071 11.4553C6.992 11.5079 6.93811 11.5488 6.86828 11.5788C6.79845 11.6087 6.71572 11.6233 6.6216 11.6233C6.52748 11.6233 6.4402 11.6065 6.3643 11.5729L6.36278 11.5715Z" fill="#213551"/>
<path d="M7.63646 10.4654C7.71084 10.4289 7.79357 10.4114 7.88541 10.4114C7.99319 10.4114 8.09035 10.4362 8.17687 10.4859C8.26416 10.5356 8.33247 10.6064 8.38257 10.6977C8.43266 10.789 8.45771 10.8935 8.45771 11.0119C8.45771 11.1302 8.43266 11.2347 8.38257 11.3275C8.33247 11.4202 8.2634 11.4926 8.17612 11.5444C8.08807 11.5963 7.99168 11.6219 7.88541 11.6219C7.7913 11.6219 7.70705 11.6043 7.63418 11.5685C7.56132 11.5335 7.50363 11.4874 7.46037 11.4326V11.6029H7.20837V10.0286H7.46037V10.605C7.50287 10.548 7.56207 10.5019 7.63646 10.4654V10.4654ZM8.14955 10.8015C8.11464 10.7423 8.06909 10.6977 8.01293 10.6678C7.956 10.6371 7.89528 10.6218 7.83076 10.6218C7.76625 10.6218 7.70705 10.6371 7.65088 10.6685C7.59395 10.6999 7.54841 10.7452 7.5135 10.8044C7.47858 10.8643 7.46112 10.9344 7.46112 11.0148C7.46112 11.0951 7.47858 11.166 7.5135 11.2266C7.54841 11.2873 7.59395 11.3326 7.65088 11.364C7.7078 11.3954 7.76777 11.4107 7.83076 11.4107C7.89376 11.4107 7.95676 11.3947 8.01293 11.3625C8.06985 11.3304 8.11539 11.2843 8.14955 11.223C8.18446 11.1624 8.20192 11.0908 8.20192 11.0104C8.20192 10.93 8.18446 10.8599 8.14955 10.8007V10.8015Z" fill="#213551"/>
<path d="M9.69335 10.4304L8.94648 12.1537H8.68538L8.93282 11.5832L8.45312 10.4297H8.73396L9.07628 11.3231L9.43225 10.4297H9.69335V10.4304Z" fill="#213551"/>
<path d="M10.4668 11.3004H9.82317L9.71235 11.6029H9.44897L9.99926 10.1221H10.2907L10.841 11.6029H10.5754L10.4645 11.3004H10.4668ZM10.3962 11.1024L10.1465 10.415L9.89452 11.1024H10.3962Z" fill="#213551"/>
<path d="M10.9844 10.2303C10.9533 10.2003 10.9381 10.1638 10.9381 10.12C10.9381 10.0761 10.9533 10.0389 10.9844 10.0089C11.0155 9.97897 11.0535 9.96436 11.0998 9.96436C11.1461 9.96436 11.1818 9.97897 11.2129 10.0089C11.244 10.0389 11.2592 10.0754 11.2592 10.12C11.2592 10.1645 11.244 10.201 11.2129 10.2303C11.1818 10.2595 11.1446 10.2748 11.0998 10.2748C11.055 10.2748 11.0155 10.2602 10.9844 10.2303ZM11.2235 10.4304V11.6029H10.9715V10.4304H11.2235Z" fill="#213551"/>
<path d="M11.436 10.6977C11.4869 10.6071 11.556 10.5363 11.644 10.4859C11.7321 10.4355 11.8292 10.4106 11.937 10.4106C12.0167 10.4106 12.0949 10.4274 12.1723 10.4603C12.2497 10.4939 12.3112 10.5377 12.3567 10.5933V10.0271H12.611V11.6014H12.3567V11.4246C12.3157 11.4816 12.258 11.5283 12.1852 11.5649C12.1123 11.6021 12.0288 11.6204 11.9339 11.6204C11.8277 11.6204 11.7313 11.5948 11.6432 11.543C11.5552 11.4911 11.4861 11.4188 11.4353 11.326C11.3844 11.2332 11.3594 11.128 11.3594 11.0104C11.3594 10.8928 11.3844 10.7883 11.4353 10.6977H11.436ZM12.3051 10.8044C12.2702 10.7445 12.2254 10.6992 12.1692 10.6685C12.1131 10.6371 12.0531 10.6218 11.9878 10.6218C11.9226 10.6218 11.8626 10.6371 11.8064 10.6678C11.7503 10.6985 11.7047 10.743 11.6706 10.8015C11.6357 10.8606 11.619 10.93 11.619 11.0111C11.619 11.0922 11.6364 11.1631 11.6706 11.2237C11.7055 11.2851 11.751 11.3311 11.808 11.3632C11.8649 11.3954 11.9248 11.4115 11.9878 11.4115C12.0508 11.4115 12.1131 11.3961 12.1692 11.3647C12.2254 11.3333 12.2702 11.288 12.3051 11.2274C12.34 11.1675 12.3575 11.0966 12.3575 11.0155C12.3575 10.9344 12.34 10.8643 12.3051 10.8051V10.8044Z" fill="#213551"/>
<path d="M12.8243 10.6977C12.8751 10.6072 12.9442 10.5363 13.0323 10.4859C13.1203 10.4355 13.2167 10.4106 13.323 10.4106C13.4186 10.4106 13.5021 10.4289 13.5742 10.4647C13.6455 10.5012 13.7025 10.5458 13.7457 10.5999V10.4296H14V11.6021H13.7457V11.4275C13.7032 11.4831 13.6448 11.5291 13.5712 11.5656C13.4975 11.6029 13.4133 11.6211 13.3192 11.6211C13.2144 11.6211 13.1188 11.5956 13.0315 11.5437C12.9442 11.4918 12.8759 11.4195 12.825 11.3267C12.7742 11.234 12.7491 11.1288 12.7491 11.0111C12.7491 10.8935 12.7742 10.7891 12.825 10.6985L12.8243 10.6977ZM13.6934 10.8044C13.6584 10.7445 13.6137 10.6992 13.5575 10.6685C13.5013 10.6371 13.4414 10.6218 13.3761 10.6218C13.3108 10.6218 13.2509 10.6371 13.1947 10.6678C13.1385 10.6985 13.093 10.743 13.0588 10.8015C13.0239 10.8607 13.0072 10.9301 13.0072 11.0111C13.0072 11.0922 13.0247 11.1631 13.0588 11.2237C13.0937 11.2851 13.1393 11.3311 13.1962 11.3633C13.2531 11.3954 13.3131 11.4115 13.3761 11.4115C13.4391 11.4115 13.5013 11.3961 13.5575 11.3647C13.6137 11.3333 13.6584 11.288 13.6934 11.2274C13.7283 11.1675 13.7457 11.0966 13.7457 11.0155C13.7457 10.9344 13.7283 10.8643 13.6934 10.8051V10.8044Z" fill="#213551"/>
</g>
<defs>
<clipPath id="clip0_510_71">
<rect width="12" height="10.1538" fill="white" transform="translate(2 2)"/>
</clipPath>
</defs>
</svg>
