<svg width="81" height="70" viewBox="0 0 81 70" fill="none" xmlns="http://www.w3.org/2000/svg">
<g clip-path="url(#clip0_45_1687)">
<path d="M2.68463 59.5883V64.1005C2.68463 64.4054 2.75636 64.6239 2.89981 64.7611C3.04326 64.8932 3.28918 64.9592 3.63757 64.9592H4.68273V66.3668H3.34042C2.57704 66.3668 1.98786 66.1889 1.57799 65.8332C1.16812 65.4775 0.968311 64.8983 0.968311 64.1005V59.5883H0V58.2113H0.968311V56.1838H2.68463V58.2113H4.68273V59.5883H2.68463Z" fill="white"/>
<path d="M6.96776 65.9757C6.34271 65.6251 5.84575 65.1322 5.49224 64.4971C5.1336 63.8619 4.95428 63.1251 4.95428 62.2867C4.95428 61.4483 5.13872 60.7217 5.50761 60.0814C5.87649 59.4412 6.37857 58.9483 7.01387 58.6028C7.64916 58.2572 8.36131 58.0845 9.1503 58.0845C9.93929 58.0845 10.6463 58.2572 11.2816 58.6028C11.9169 58.9483 12.419 59.4412 12.7879 60.0814C13.1568 60.7217 13.3412 61.4585 13.3412 62.2867C13.3412 63.115 13.1516 63.8517 12.7725 64.492C12.3934 65.1322 11.881 65.6302 11.2304 65.9808C10.5797 66.3314 9.85732 66.5042 9.07345 66.5042C8.28958 66.5042 7.59793 66.3314 6.96776 65.9808V65.9757ZM10.3031 64.7257C10.6873 64.5174 10.9947 64.2074 11.2355 63.7959C11.4763 63.3792 11.5941 62.8761 11.5941 62.2867C11.5941 61.6973 11.4814 61.1942 11.2509 60.7826C11.0203 60.3711 10.718 60.0662 10.3389 59.8578C9.95979 59.6495 9.55504 59.5479 9.11444 59.5479C8.67383 59.5479 8.26909 59.6495 7.90021 59.8578C7.53132 60.0662 7.22905 60.3711 7.01387 60.7826C6.79356 61.1942 6.68597 61.6922 6.68597 62.2867C6.68597 63.1658 6.9114 63.8416 7.36738 64.3192C7.81823 64.7969 8.38692 65.0357 9.07345 65.0357C9.50893 65.0357 9.92392 64.9341 10.3031 64.7257Z" fill="white"/>
<path d="M21.7281 58.2166V66.372H20.0271V65.4117C19.7607 65.747 19.4072 66.0113 18.9769 66.2044C18.5465 66.3974 18.0854 66.494 17.5987 66.494C16.9531 66.494 16.3742 66.3619 15.8619 66.0926C15.3495 65.8283 14.9448 65.432 14.6528 64.9086C14.3607 64.3853 14.2122 63.7552 14.2122 63.0133V58.2166H15.8977V62.7592C15.8977 63.4909 16.0822 64.0499 16.4511 64.4361C16.8199 64.8273 17.322 65.0204 17.9573 65.0204C18.5926 65.0204 19.0998 64.8273 19.4738 64.4361C19.8478 64.0448 20.0323 63.4859 20.0323 62.7592V58.2166H21.7332H21.7281Z" fill="white"/>
<path d="M25.9139 58.43C26.3289 58.1963 26.8156 58.0845 27.3843 58.0845V59.8324H26.9539C26.2879 59.8324 25.7807 60.0001 25.4374 60.3355C25.0941 60.6709 24.9251 61.2552 24.9251 62.0835V66.3772H23.2241V58.2217H24.9251V59.4056C25.1761 58.9889 25.504 58.6688 25.919 58.4351L25.9139 58.43Z" fill="white"/>
<path d="M29.4489 66.1536C28.9366 65.9198 28.5319 65.6048 28.2347 65.2085C27.9376 64.807 27.7787 64.365 27.7582 63.867H29.5207C29.5514 64.2125 29.7154 64.5022 30.0228 64.7308C30.325 64.9646 30.7042 65.0763 31.1653 65.0763C31.6264 65.0763 32.0157 64.9849 32.277 64.8019C32.5383 64.619 32.6715 64.3853 32.6715 64.1007C32.6715 63.7959 32.5229 63.5672 32.2309 63.4198C31.9389 63.2725 31.4727 63.1099 30.8374 62.932C30.2226 62.7643 29.7205 62.6017 29.3311 62.4442C28.9417 62.2867 28.6087 62.0428 28.3218 61.7176C28.04 61.3924 27.8966 60.9605 27.8966 60.432C27.8966 60.0001 28.0247 59.5987 28.2859 59.243C28.5421 58.8822 28.9161 58.5977 29.3977 58.3944C29.8793 58.1912 30.4326 58.0845 31.0628 58.0845C32.0004 58.0845 32.7535 58.3182 33.3222 58.7857C33.896 59.2532 34.1983 59.8934 34.2393 60.7013H32.5383C32.5076 60.3355 32.359 60.0459 32.0926 59.8274C31.8262 59.6089 31.4624 59.5022 31.0013 59.5022C30.5402 59.5022 30.2123 59.5885 29.9715 59.7562C29.7307 59.9239 29.6129 60.1475 29.6129 60.4219C29.6129 60.6404 29.6949 60.8233 29.8537 60.9706C30.0125 61.118 30.2072 61.2349 30.4377 61.3213C30.6683 61.4076 31.0064 61.5093 31.4522 61.6414C32.0516 61.7989 32.5383 61.9615 32.9226 62.1241C33.3068 62.2867 33.6347 62.5255 33.9165 62.8406C34.1932 63.1556 34.3366 63.5774 34.3469 64.1007C34.3469 64.5631 34.2188 64.9798 33.9575 65.3456C33.6962 65.7115 33.3324 65.9961 32.8611 66.2044C32.3897 66.4127 31.8313 66.5143 31.196 66.5143C30.5607 66.5143 29.9715 66.3975 29.4592 66.1637L29.4489 66.1536Z" fill="white"/>
<path d="M38.0459 58.4605C38.548 58.2064 39.1065 58.0845 39.7264 58.0845C40.4539 58.0845 41.1097 58.2572 41.6938 58.6028C42.2829 58.9483 42.744 59.4412 43.0822 60.0763C43.4203 60.7115 43.5894 61.4381 43.5894 62.2613C43.5894 63.0845 43.4203 63.8111 43.0822 64.4564C42.744 65.1018 42.2778 65.6048 41.6886 65.9656C41.0943 66.3263 40.4437 66.5042 39.7264 66.5042C39.0911 66.5042 38.5224 66.3822 38.0306 66.1333C37.5387 65.8894 37.1494 65.5692 36.8573 65.1881V66.3721H35.1564V55.4219H36.8573V59.431C37.1442 59.0347 37.5438 58.7146 38.0459 58.4605ZM41.5093 60.7979C41.2736 60.3863 40.9662 60.0763 40.5871 59.868C40.2029 59.6546 39.793 59.5479 39.3575 59.5479C38.922 59.5479 38.5224 59.6546 38.1433 59.8731C37.759 60.0916 37.4516 60.4066 37.216 60.8182C36.9803 61.2349 36.8624 61.7227 36.8624 62.2816C36.8624 62.8406 36.9803 63.3335 37.216 63.7552C37.4516 64.177 37.759 64.492 38.1433 64.7105C38.5275 64.929 38.9323 65.0357 39.3575 65.0357C39.7827 65.0357 40.208 64.9239 40.5871 64.7003C40.9714 64.4768 41.2788 64.1566 41.5093 63.7298C41.745 63.3081 41.8628 62.8101 41.8628 62.2511C41.8628 61.6922 41.745 61.2044 41.5093 60.7928V60.7979Z" fill="white"/>
<path d="M51.9302 58.2165L46.8888 70.2033H45.1264L46.7966 66.2348L43.5587 58.2114H45.4543L47.7649 64.4259L50.1678 58.2114H51.9302V58.2165Z" fill="white"/>
<path d="M57.1509 64.2684H52.8063L52.0583 66.3721H50.2805L53.9949 56.0723H55.9622L59.6767 66.3721H57.8835L57.1355 64.2684H57.1509ZM56.6744 62.8914L54.9888 58.1099L53.2879 62.8914H56.6744Z" fill="white"/>
<path d="M60.645 56.8242C60.4349 56.6159 60.3325 56.3618 60.3325 56.0569C60.3325 55.752 60.4349 55.4929 60.645 55.2846C60.855 55.0762 61.1112 54.9746 61.4237 54.9746C61.7363 54.9746 61.977 55.0762 62.1871 55.2846C62.3972 55.4929 62.4996 55.747 62.4996 56.0569C62.4996 56.3669 62.3972 56.621 62.1871 56.8242C61.977 57.0275 61.726 57.1342 61.4237 57.1342C61.1215 57.1342 60.855 57.0325 60.645 56.8242ZM62.2588 58.2165V66.372H60.5579V58.2165H62.2588Z" fill="white"/>
<path d="M63.6934 60.0763C64.0366 59.4462 64.5028 58.9533 65.0972 58.6027C65.6915 58.2521 66.3473 58.0793 67.0748 58.0793C67.6127 58.0793 68.1404 58.1962 68.663 58.4248C69.1856 58.6586 69.6006 58.9635 69.908 59.3496V55.4116H71.6243V66.3618H69.908V65.1321C69.6313 65.5285 69.2419 65.8537 68.7501 66.1078C68.2583 66.3669 67.6947 66.4939 67.0543 66.4939C66.337 66.4939 65.6863 66.3161 65.092 65.9553C64.4977 65.5945 64.0315 65.0915 63.6882 64.4462C63.345 63.8008 63.1759 63.0691 63.1759 62.2511C63.1759 61.433 63.345 60.7063 63.6882 60.0763H63.6934ZM69.5596 60.8181C69.3239 60.4015 69.0216 60.0864 68.6425 59.873C68.2634 59.6545 67.8586 59.5478 67.418 59.5478C66.9774 59.5478 66.5727 59.6545 66.1936 59.8679C65.8144 60.0813 65.507 60.3913 65.2765 60.7978C65.0408 61.2094 64.9281 61.6921 64.9281 62.2561C64.9281 62.8202 65.0459 63.313 65.2765 63.7348C65.5121 64.1616 65.8195 64.4817 66.2038 64.7053C66.588 64.9289 66.9928 65.0407 67.418 65.0407C67.8433 65.0407 68.2634 64.934 68.6425 64.7155C69.0216 64.497 69.3239 64.1819 69.5596 63.7602C69.7953 63.3435 69.9131 62.8506 69.9131 62.2866C69.9131 61.7226 69.7953 61.2348 69.5596 60.8232V60.8181Z" fill="white"/>
<path d="M73.064 60.0763C73.4072 59.4462 73.8735 58.9533 74.4678 58.6027C75.0621 58.2521 75.7127 58.0793 76.43 58.0793C77.0755 58.0793 77.6391 58.2064 78.1258 58.4554C78.6074 58.7094 78.9917 59.0194 79.2837 59.3954V58.2115H81V66.367H79.2837V65.1525C78.9968 65.5387 78.6023 65.8588 78.1053 66.1129C77.6084 66.372 77.0397 66.4991 76.4044 66.4991C75.6974 66.4991 75.0518 66.3212 74.4626 65.9604C73.8735 65.5997 73.4124 65.0966 73.0691 64.4513C72.7258 63.806 72.5568 63.0743 72.5568 62.2562C72.5568 61.4381 72.7258 60.7115 73.0691 60.0814L73.064 60.0763ZM78.9302 60.8182C78.6945 60.4015 78.3923 60.0865 78.0131 59.873C77.634 59.6545 77.2293 59.5478 76.7886 59.5478C76.348 59.5478 75.9433 59.6545 75.5642 59.868C75.185 60.0814 74.8776 60.3913 74.6471 60.7978C74.4114 61.2094 74.2987 61.6922 74.2987 62.2562C74.2987 62.8202 74.4165 63.3131 74.6471 63.7348C74.8828 64.1617 75.1902 64.4818 75.5744 64.7054C75.9587 64.9289 76.3634 65.0407 76.7886 65.0407C77.2139 65.0407 77.634 64.934 78.0131 64.7155C78.3923 64.497 78.6945 64.182 78.9302 63.7602C79.1659 63.3436 79.2837 62.8507 79.2837 62.2867C79.2837 61.7226 79.1659 61.2348 78.9302 60.8232V60.8182Z" fill="white"/>
<path d="M51.6688 26.1228C50.9362 26.0059 50.1933 25.9094 49.4504 25.8281C49.3326 25.8128 49.2199 25.8026 49.1021 25.7925L60.8038 44.4968C60.9831 44.7915 61.3058 44.9693 61.6542 44.9693C61.8387 44.9693 62.0231 44.9185 62.1871 44.8169C62.6584 44.5323 62.7967 43.9175 62.5098 43.45L51.674 26.1228H51.6688Z" fill="#3DBCD3"/>
<path d="M73.6889 31.3718C73.4584 31.1788 73.2227 30.9857 72.987 30.8027C72.1519 30.1422 71.2963 29.507 70.4202 28.9074C69.4007 28.2113 68.3402 27.5507 67.2796 26.9409L66.5521 24.6188C66.3984 24.131 66.05 23.7245 65.5992 23.5009L62.976 22.2204L64.0468 25.6554C59.2667 23.4196 54.1639 22.0629 48.8612 21.631L35.6174 0.467366C35.5252 0.320008 35.4022 0.203138 35.2536 0.121837C34.8028 -0.127147 34.188 0.0252926 33.9165 0.467366L20.7751 21.4684L15.247 30.2997C16.6559 29.1005 18.1417 27.9877 19.6838 26.9816L22.2404 22.8911L34.7669 2.8759L46.4225 21.504C46.0229 21.4938 45.6182 21.4887 45.2185 21.4887C37.928 21.4887 30.7656 23.2722 24.387 26.6716C23.8491 26.9562 23.3265 27.2509 22.7988 27.5609C22.6144 27.6727 22.4248 27.7794 22.2404 27.8962C19.7453 29.4105 17.3886 31.1788 15.2368 33.1605C13.7664 34.5121 12.3831 35.9653 11.1125 37.5101C10.4003 38.3688 9.72405 39.2529 9.08363 40.1625C8.32538 41.2346 7.60811 42.3525 6.95232 43.4857C6.81911 43.7143 6.78325 43.9836 6.85498 44.2428C6.9267 44.4968 7.09065 44.7103 7.32633 44.8424C7.48003 44.9288 7.6491 44.9745 7.82329 44.9745C8.18192 44.9745 8.51494 44.7865 8.69426 44.4765C9.32443 43.3891 10.0058 42.322 10.7385 41.2905C10.8614 41.1127 10.9844 40.9399 11.1176 40.7672C14.1865 36.57 17.9675 33.0283 22.2404 30.2641C22.9423 29.8068 23.6595 29.3749 24.387 28.9684C30.658 25.4216 37.8204 23.4755 45.2185 23.4755C46.0895 23.4755 46.9605 23.506 47.8314 23.5568C48.4411 23.5975 49.0662 23.6483 49.681 23.7143C55.0246 24.2783 60.1223 25.8129 64.8358 28.2824C64.9434 28.5873 65.1586 28.8414 65.4506 29.004C65.6709 29.131 65.8963 29.2529 66.1166 29.3851L63.2476 29.7407C63.1963 29.7407 63.1451 29.756 63.0939 29.7662L62.6328 29.8729L64.4823 31.6107C64.887 31.9918 65.4352 32.1747 65.9988 32.1035L69.6415 31.6513C70.4407 32.2255 71.2195 32.8251 71.9572 33.4349C72.5054 33.8973 73.402 33.8159 73.8631 33.2672C74.3447 32.6981 74.2628 31.8495 73.6889 31.3769V31.3718Z" fill="#3DBCD3"/>
</g>
<defs>
<clipPath id="clip0_45_1687">
<rect width="81" height="70" fill="white"/>
</clipPath>
</defs>
</svg>
