<svg width="54" height="48" viewBox="0 0 54 48" fill="none" xmlns="http://www.w3.org/2000/svg">
<g clip-path="url(#clip0_8_37)">
<path d="M34.4471 17.5379C33.9587 17.4595 33.4634 17.3946 32.9682 17.34C32.8896 17.3298 32.8145 17.323 32.7359 17.3162L40.537 29.8747C40.6566 30.0726 40.8718 30.192 41.104 30.192C41.227 30.192 41.3499 30.1579 41.4592 30.0897C41.7735 29.8986 41.8657 29.4858 41.6744 29.1719L34.4505 17.5379H34.4471Z" fill="#3DBCD3"/>
<path d="M49.1272 21.0623C48.9735 20.9327 48.8164 20.803 48.6593 20.6802C48.1025 20.2367 47.5321 19.8102 46.9481 19.4076C46.2684 18.9402 45.5614 18.4967 44.8543 18.0873L44.3693 16.5281C44.2669 16.2006 44.0346 15.9277 43.734 15.7775L41.9853 14.9178L42.6991 17.2241C39.5124 15.723 36.1105 14.812 32.5754 14.522L23.7462 0.312163C23.6847 0.213223 23.6027 0.134753 23.5037 0.0801658C23.2031 -0.087009 22.7932 0.0153429 22.6122 0.312163L13.8513 14.4128L10.1659 20.3424C11.1052 19.5373 12.0957 18.7901 13.1238 18.1146L14.8282 15.3681L23.1792 1.92932L30.9496 14.4367C30.6832 14.4299 30.4133 14.4265 30.1469 14.4265C25.2866 14.4265 20.5116 15.624 16.2593 17.9065C15.9006 18.0975 15.5522 18.2954 15.2004 18.5035C15.0775 18.5786 14.9511 18.6502 14.8282 18.7287C13.1648 19.7454 11.5936 20.9327 10.1591 22.2632C9.17882 23.1708 8.25662 24.1465 7.40956 25.1837C6.93479 25.7603 6.48394 26.3539 6.05699 26.9646C5.55149 27.6845 5.07331 28.4351 4.63612 29.1959C4.54732 29.3494 4.52341 29.5302 4.57123 29.7042C4.61904 29.8748 4.72834 30.0181 4.88546 30.1068C4.98792 30.1648 5.10064 30.1955 5.21677 30.1955C5.45586 30.1955 5.67787 30.0693 5.79741 29.8612C6.21753 29.1311 6.6718 28.4146 7.16022 27.722C7.24219 27.6026 7.32417 27.4866 7.41297 27.3706C9.45889 24.5525 11.9796 22.1745 14.8282 20.3186C15.2961 20.0115 15.7743 19.7215 16.2593 19.4486C20.4399 17.0672 25.2149 15.7605 30.1469 15.7605C30.7276 15.7605 31.3082 15.781 31.8889 15.8151C32.2953 15.8424 32.712 15.8765 33.1219 15.9208C36.6843 16.2995 40.0828 17.3299 43.2251 18.988C43.2968 19.1927 43.4403 19.3633 43.635 19.4724C43.7818 19.5577 43.9321 19.6396 44.079 19.7283L42.1663 19.9671C42.1321 19.9671 42.098 19.9774 42.0638 19.9842L41.7564 20.0558L42.9894 21.2227C43.2593 21.4785 43.6247 21.6014 44.0004 21.5536L46.4289 21.25C46.9617 21.6355 47.4809 22.0381 47.9727 22.4475C48.3382 22.7579 48.9359 22.7034 49.2433 22.3349C49.5644 21.9528 49.5097 21.383 49.1272 21.0657V21.0623Z" fill="#3DBCD3"/>
<path d="M1.78975 40.2934V43.323C1.78975 43.5277 1.83757 43.6745 1.93321 43.7666C2.02884 43.8553 2.19279 43.8996 2.42505 43.8996H3.12182V44.8447H2.22694C1.71803 44.8447 1.32524 44.7253 1.05199 44.4864C0.778748 44.2476 0.645541 43.8587 0.645541 43.323V40.2934H0V39.3689H0.645541V38.0076H1.78975V39.3689H3.12182V40.2934H1.78975Z" fill="#213551"/>
<path d="M4.64517 44.5819C4.22847 44.3465 3.89716 44.0155 3.66149 43.589C3.4224 43.1626 3.30286 42.6679 3.30286 42.1049C3.30286 41.542 3.42582 41.0541 3.67174 40.6243C3.91766 40.1944 4.25238 39.8634 4.67591 39.6314C5.09944 39.3994 5.5742 39.2834 6.1002 39.2834C6.6262 39.2834 7.09754 39.3994 7.52107 39.6314C7.9446 39.8634 8.27933 40.1944 8.52525 40.6243C8.77117 41.0541 8.89413 41.5488 8.89413 42.1049C8.89413 42.6611 8.76775 43.1558 8.515 43.5856C8.26225 44.0155 7.92069 44.3499 7.48692 44.5853C7.05314 44.8207 6.57155 44.9367 6.04897 44.9367C5.52639 44.9367 5.06529 44.8207 4.64517 44.5853V44.5819ZM6.8687 43.7426C7.12487 43.6027 7.3298 43.3946 7.49033 43.1182C7.65086 42.8385 7.72942 42.5007 7.72942 42.1049C7.72942 41.7092 7.65428 41.3714 7.50058 41.0951C7.34688 40.8187 7.14536 40.614 6.89261 40.4741C6.63986 40.3343 6.37003 40.266 6.07629 40.266C5.78255 40.266 5.51272 40.3343 5.2668 40.4741C5.02088 40.614 4.81936 40.8187 4.67591 41.0951C4.52904 41.3714 4.45732 41.7058 4.45732 42.1049C4.45732 42.6952 4.6076 43.1489 4.91158 43.4696C5.21215 43.7903 5.59128 43.9507 6.04897 43.9507C6.33929 43.9507 6.61595 43.8825 6.8687 43.7426Z" fill="#213551"/>
<path d="M14.4854 39.3723V44.8481H13.3514V44.2033C13.1738 44.4285 12.9381 44.6059 12.6512 44.7356C12.3643 44.8652 12.0569 44.93 11.7324 44.93C11.3021 44.93 10.9161 44.8413 10.5745 44.6605C10.233 44.4831 9.96316 44.217 9.76847 43.8656C9.57378 43.5142 9.47473 43.0911 9.47473 42.593V39.3723H10.5985V42.4224C10.5985 42.9137 10.7214 43.289 10.9673 43.5483C11.2133 43.811 11.548 43.9406 11.9715 43.9406C12.395 43.9406 12.7332 43.811 12.9825 43.5483C13.2318 43.2856 13.3548 42.9103 13.3548 42.4224V39.3723H14.4888H14.4854Z" fill="#213551"/>
<path d="M17.2759 39.5154C17.5526 39.3585 17.877 39.2834 18.2562 39.2834V40.4571H17.9693C17.5252 40.4571 17.1871 40.5697 16.9582 40.7948C16.7294 41.02 16.6167 41.4124 16.6167 41.9685V44.8514H15.4827V39.3756H16.6167V40.1705C16.7841 39.8907 17.0027 39.6758 17.2793 39.5189L17.2759 39.5154Z" fill="#213551"/>
<path d="M19.6326 44.7013C19.2911 44.5443 19.0212 44.3328 18.8231 44.0667C18.625 43.7972 18.5192 43.5003 18.5055 43.166H19.6804C19.7009 43.398 19.8102 43.5925 20.0152 43.746C20.2167 43.9029 20.4694 43.978 20.7768 43.978C21.0842 43.978 21.3438 43.9166 21.518 43.7938C21.6922 43.6709 21.781 43.514 21.781 43.3229C21.781 43.1182 21.682 42.9647 21.4873 42.8658C21.2926 42.7668 20.9818 42.6576 20.5582 42.5382C20.1484 42.4256 19.8137 42.3165 19.5541 42.2107C19.2945 42.1049 19.0725 41.9412 18.8812 41.7228C18.6933 41.5045 18.5977 41.2145 18.5977 40.8597C18.5977 40.5697 18.6831 40.3001 18.8573 40.0613C19.0281 39.8191 19.2774 39.628 19.5985 39.4916C19.9195 39.3551 20.2884 39.2834 20.7085 39.2834C21.3336 39.2834 21.8357 39.4404 22.2148 39.7543C22.5973 40.0681 22.7989 40.498 22.8262 41.0405H21.6922C21.6717 40.7948 21.5727 40.6004 21.3951 40.4537C21.2174 40.307 20.9749 40.2353 20.6675 40.2353C20.3601 40.2353 20.1415 40.2933 19.981 40.4059C19.8205 40.5185 19.7419 40.6686 19.7419 40.8528C19.7419 40.9995 19.7966 41.1224 19.9025 41.2213C20.0083 41.3202 20.1381 41.3987 20.2918 41.4567C20.4455 41.5147 20.671 41.583 20.9681 41.6717C21.3677 41.7774 21.6922 41.8866 21.9484 41.9958C22.2045 42.1049 22.4231 42.2653 22.611 42.4768C22.7954 42.6884 22.8911 42.9715 22.8979 43.3229C22.8979 43.6334 22.8125 43.9132 22.6383 44.1588C22.4641 44.4045 22.2216 44.5955 21.9074 44.7354C21.5932 44.8753 21.2209 44.9435 20.7973 44.9435C20.3738 44.9435 19.981 44.865 19.6395 44.7081L19.6326 44.7013Z" fill="#213551"/>
<path d="M25.3639 39.5361C25.6987 39.3655 26.071 39.2836 26.4842 39.2836C26.9692 39.2836 27.4064 39.3996 27.7958 39.6316C28.1886 39.8636 28.496 40.1945 28.7214 40.621C28.9469 41.0475 29.0596 41.5353 29.0596 42.088C29.0596 42.6407 28.9469 43.1286 28.7214 43.5619C28.496 43.9952 28.1852 44.333 27.7924 44.5752C27.3962 44.8174 26.9624 44.9368 26.4842 44.9368C26.0607 44.9368 25.6816 44.855 25.3537 44.6878C25.0258 44.524 24.7662 44.3091 24.5715 44.0532V44.8481H23.4376V37.4958H24.5715V40.1877C24.7628 39.9216 25.0292 39.7067 25.3639 39.5361ZM27.6729 41.1055C27.5157 40.8291 27.3108 40.621 27.0581 40.4811C26.8019 40.3378 26.5286 40.2662 26.2383 40.2662C25.948 40.2662 25.6816 40.3378 25.4288 40.4845C25.1727 40.6312 24.9677 40.8428 24.8106 41.1191C24.6535 41.3989 24.5749 41.7264 24.5749 42.1017C24.5749 42.477 24.6535 42.8079 24.8106 43.0911C24.9677 43.3743 25.1727 43.5858 25.4288 43.7325C25.685 43.8792 25.9548 43.9508 26.2383 43.9508C26.5218 43.9508 26.8053 43.8758 27.0581 43.7257C27.3142 43.5756 27.5192 43.3606 27.6729 43.074C27.83 42.7909 27.9085 42.4565 27.9085 42.0812C27.9085 41.7059 27.83 41.3784 27.6729 41.102V41.1055Z" fill="#213551"/>
<path d="M34.6201 39.3723L31.2592 47.4206H30.0842L31.1977 44.756L29.0391 39.3689H30.3028L31.8432 43.5414L33.4451 39.3689H34.6201V39.3723Z" fill="#213551"/>
<path d="M38.1006 43.4355H35.2042L34.7055 44.848H33.5203L35.9966 37.9324H37.3082L39.7845 44.848H38.589L38.0903 43.4355H38.1006ZM37.7829 42.5109L36.6592 39.3005L35.5253 42.5109H37.7829Z" fill="#213551"/>
<path d="M40.43 38.4374C40.2899 38.2975 40.2216 38.127 40.2216 37.9223C40.2216 37.7176 40.2899 37.5436 40.43 37.4037C40.57 37.2638 40.7408 37.1956 40.9491 37.1956C41.1575 37.1956 41.318 37.2638 41.458 37.4037C41.5981 37.5436 41.6664 37.7141 41.6664 37.9223C41.6664 38.1304 41.5981 38.301 41.458 38.4374C41.318 38.5739 41.1506 38.6455 40.9491 38.6455C40.7476 38.6455 40.57 38.5773 40.43 38.4374ZM41.5059 39.3722V44.8481H40.3719V39.3722H41.5059Z" fill="#213551"/>
<path d="M42.4622 40.621C42.6911 40.1979 43.0019 39.867 43.3981 39.6316C43.7943 39.3962 44.2315 39.2802 44.7165 39.2802C45.0751 39.2802 45.4269 39.3586 45.7753 39.5122C46.1237 39.6691 46.4004 39.8738 46.6053 40.1331V37.489H47.7495V44.8413H46.6053V44.0157C46.4209 44.2818 46.1613 44.5001 45.8334 44.6707C45.5055 44.8447 45.1298 44.93 44.7028 44.93C44.2247 44.93 43.7909 44.8106 43.3947 44.5684C42.9985 44.3261 42.6876 43.9884 42.4588 43.5551C42.23 43.1218 42.1172 42.6305 42.1172 42.0812C42.1172 41.5319 42.23 41.044 42.4588 40.621H42.4622ZM46.373 41.1191C46.2159 40.8393 46.0144 40.6278 45.7617 40.4845C45.5089 40.3378 45.2391 40.2662 44.9453 40.2662C44.6516 40.2662 44.3818 40.3378 44.129 40.4811C43.8763 40.6244 43.6713 40.8325 43.5176 41.1054C43.3605 41.3818 43.2854 41.7059 43.2854 42.0846C43.2854 42.4633 43.3639 42.7943 43.5176 43.0774C43.6747 43.364 43.8797 43.579 44.1358 43.7291C44.392 43.8792 44.6618 43.9542 44.9453 43.9542C45.2288 43.9542 45.5089 43.8826 45.7617 43.7359C46.0144 43.5892 46.2159 43.3777 46.373 43.0945C46.5302 42.8147 46.6087 42.4838 46.6087 42.1051C46.6087 41.7264 46.5302 41.3989 46.373 41.1225V41.1191Z" fill="#213551"/>
<path d="M48.7093 40.6208C48.9381 40.1978 49.249 39.8668 49.6452 39.6314C50.0414 39.396 50.4751 39.28 50.9533 39.28C51.3837 39.28 51.7594 39.3653 52.0839 39.5325C52.4049 39.7031 52.6611 39.9112 52.8558 40.1637V39.3687H54V44.8446H52.8558V44.0292C52.6645 44.2884 52.4015 44.5034 52.0702 44.674C51.7389 44.848 51.3598 44.9333 50.9362 44.9333C50.4649 44.9333 50.0345 44.8139 49.6417 44.5716C49.249 44.3294 48.9416 43.9916 48.7127 43.5583C48.4839 43.1251 48.3712 42.6338 48.3712 42.0845C48.3712 41.5352 48.4839 41.0473 48.7127 40.6242L48.7093 40.6208ZM52.6201 41.119C52.463 40.8392 52.2615 40.6277 52.0087 40.4844C51.756 40.3377 51.4861 40.266 51.1924 40.266C50.8987 40.266 50.6288 40.3377 50.3761 40.481C50.1233 40.6243 49.9184 40.8324 49.7647 41.1053C49.6076 41.3817 49.5324 41.7058 49.5324 42.0845C49.5324 42.4632 49.611 42.7941 49.7647 43.0773C49.9218 43.3639 50.1268 43.5788 50.3829 43.7289C50.6391 43.879 50.9089 43.9541 51.1924 43.9541C51.4759 43.9541 51.756 43.8825 52.0087 43.7357C52.2615 43.589 52.463 43.3775 52.6201 43.0943C52.7772 42.8146 52.8558 42.4836 52.8558 42.1049C52.8558 41.7262 52.7772 41.3987 52.6201 41.1224V41.119Z" fill="#213551"/>
</g>
<defs>
<clipPath id="clip0_8_37">
<rect width="54" height="47.4205" fill="white"/>
</clipPath>
</defs>
</svg>
