<svg width="60" height="60" viewBox="0 0 60 60" fill="none" xmlns="http://www.w3.org/2000/svg">
<g clip-path="url(#clip0_12_38)">
<path d="M29.9999 45L18.5812 28.875C16.7122 26.6683 15.5085 23.9759 15.1105 21.1115C14.7124 18.2472 15.1364 15.3287 16.3329 12.6959C17.5294 10.0632 19.4493 7.82453 21.8689 6.24073C24.2886 4.65693 27.1084 3.79316 29.9999 3.75C34.0082 3.78961 37.8374 5.41611 40.6489 8.27328C43.4604 11.1304 45.0249 14.9854 44.9999 18.9938C45.0015 22.4905 43.811 25.8833 41.6249 28.6125L29.9999 45ZM29.9999 7.5C26.9847 7.53463 24.1064 8.76446 21.9971 10.9194C19.8878 13.0744 18.7199 15.9784 18.7499 18.9938C18.7625 21.7459 19.7527 24.4041 21.5437 26.4937L29.9999 38.475L38.6812 26.25C40.3314 24.1902 41.2366 21.633 41.2499 18.9938C41.28 15.9784 40.1121 13.0744 38.0028 10.9194C35.8935 8.76446 33.0152 7.53463 29.9999 7.5Z" fill="white"/>
<path d="M30 20.625C32.0711 20.625 33.75 18.9461 33.75 16.875C33.75 14.8039 32.0711 13.125 30 13.125C27.9289 13.125 26.25 14.8039 26.25 16.875C26.25 18.9461 27.9289 20.625 30 20.625Z" fill="white"/>
<path d="M52.5 22.5H48.75V26.25H52.5V52.5H7.5V26.25H11.25V22.5H7.5C6.50544 22.5 5.55161 22.8951 4.84835 23.5984C4.14509 24.3016 3.75 25.2554 3.75 26.25V52.5C3.75 53.4946 4.14509 54.4484 4.84835 55.1516C5.55161 55.8549 6.50544 56.25 7.5 56.25H52.5C53.4946 56.25 54.4484 55.8549 55.1516 55.1516C55.8549 54.4484 56.25 53.4946 56.25 52.5V26.25C56.25 25.2554 55.8549 24.3016 55.1516 23.5984C54.4484 22.8951 53.4946 22.5 52.5 22.5Z" fill="white"/>
</g>
<defs>
<clipPath id="clip0_12_38">
<rect width="60" height="60" fill="white"/>
</clipPath>
</defs>
</svg>
