<svg width="16" height="16" viewBox="0 0 16 16" fill="none" xmlns="http://www.w3.org/2000/svg">
<g clip-path="url(#clip0_45_1726)">
<path d="M6.62541 9.37386C5.09824 7.84669 4.75342 6.31951 4.67562 5.70765C4.65388 5.53847 4.7121 5.36881 4.83314 5.24862L6.069 4.01331C6.2508 3.83162 6.28306 3.54847 6.14679 3.33055L4.17907 0.2751C4.02832 0.0337895 3.71878 -0.0533019 3.46431 0.0739968L0.305416 1.56172C0.0996388 1.66305 -0.0213964 1.88168 0.00196732 2.10986C0.167485 3.68227 0.853001 7.54765 4.65162 11.3465C8.45024 15.1454 12.3151 15.8307 13.8883 15.9962C14.1165 16.0196 14.3351 15.8985 14.4364 15.6928L15.9242 12.5339C16.051 12.2799 15.9645 11.9712 15.7242 11.8202L12.6687 9.85303C12.4509 9.71662 12.1678 9.74866 11.986 9.93027L10.7507 11.1661C10.6305 11.2872 10.4608 11.3454 10.2916 11.3237C9.67976 11.2459 8.15259 10.901 6.62541 9.37386Z" fill="#3DBCD3"/>
<path d="M12.6897 8.55092C12.385 8.55092 12.138 8.3039 12.138 7.99919C12.1354 5.71495 10.2843 3.86385 8.00006 3.86126C7.69535 3.86126 7.44833 3.61425 7.44833 3.30954C7.44833 3.00483 7.69535 2.75781 8.00006 2.75781C10.8935 2.76101 13.2382 5.10578 13.2414 7.99919C13.2414 8.3039 12.9944 8.55092 12.6897 8.55092Z" fill="#3DBCD3"/>
<path d="M15.4483 8.55099C15.1436 8.55099 14.8966 8.30398 14.8966 7.99927C14.8924 4.19217 11.8072 1.10697 8.00006 1.10272C7.69535 1.10272 7.44833 0.855701 7.44833 0.550992C7.44833 0.246283 7.69535 -0.000732422 8.00006 -0.000732422C12.4163 0.00413265 15.9952 3.58301 16.0001 7.99927C16.0001 8.14559 15.9419 8.28593 15.8385 8.3894C15.735 8.49286 15.5947 8.55099 15.4483 8.55099Z" fill="#3DBCD3"/>
</g>
<defs>
<clipPath id="clip0_45_1726">
<rect width="16" height="16" fill="white" transform="translate(0 -0.000732422)"/>
</clipPath>
</defs>
</svg>
