<svg width="55" height="55" viewBox="0 0 55 55" fill="none" xmlns="http://www.w3.org/2000/svg">
<g clip-path="url(#clip0_12_11)">
<path d="M25.7948 18.3357H20.6788V23.4516H25.7948V18.3357Z" fill="#213551"/>
<path d="M34.3213 18.3357H29.2053V23.4516H34.3213V18.3357Z" fill="#213551"/>
<path d="M25.7948 35.3887H20.6788V40.5046H25.7948V35.3887Z" fill="#213551"/>
<path d="M34.3213 35.3887H29.2053V40.5046H34.3213V35.3887Z" fill="#213551"/>
<path d="M34.3213 26.8623H29.2053V31.9783H34.3213V26.8623Z" fill="#213551"/>
<path d="M25.7948 26.8623H20.6788V31.9783H25.7948V26.8623Z" fill="#213551"/>
<path d="M13.8299 4.99521L13.6258 6.18603C13.5436 6.66574 13.7407 7.15073 14.1346 7.43688C14.5284 7.72303 15.0507 7.76072 15.4815 7.53425L16.5509 6.97201L17.6203 7.53425C17.8074 7.63265 18.0117 7.68108 18.2153 7.68108C18.2165 7.68108 18.2178 7.68108 18.2188 7.68108C18.9252 7.68108 19.4978 7.10844 19.4978 6.40209C19.4978 6.29483 19.4845 6.19064 19.4598 6.09122L19.2719 4.99521L20.1372 4.15193C20.4857 3.81206 20.6112 3.30388 20.4607 2.84088C20.3102 2.37789 19.91 2.04041 19.4283 1.97049L18.2327 1.79672L17.6979 0.713163C17.4823 0.276432 17.0376 0 16.5507 0C16.0638 0 15.6193 0.276432 15.4039 0.712992L14.8693 1.79655L13.6735 1.97032C13.1917 2.04024 12.7915 2.37772 12.6411 2.84071C12.4907 3.30371 12.6162 3.81206 12.9646 4.15176L13.8299 4.99521Z" fill="#213551"/>
<path d="M35.7282 4.99504L35.5241 6.18586C35.4417 6.66574 35.639 7.15073 36.0328 7.43671C36.2557 7.59871 36.5195 7.68108 36.7847 7.68108C36.9881 7.68108 37.1926 7.63248 37.3797 7.53425L38.4491 6.97201L39.5186 7.53425C39.7057 7.63265 39.91 7.68108 40.1135 7.68108C40.1146 7.68108 40.1158 7.68108 40.1169 7.68108C40.8234 7.68108 41.3959 7.10844 41.3959 6.40209C41.3959 6.29483 41.3827 6.19064 41.3578 6.09122L41.1699 4.99521L42.035 4.15193C42.3836 3.81206 42.5089 3.30388 42.3585 2.84088C42.2081 2.37789 41.8079 2.04041 41.3259 1.97049L40.1302 1.79672L39.5954 0.713163C39.3805 0.276432 38.9358 0 38.4491 0C37.9622 0 37.5175 0.276432 37.3021 0.712992L36.7675 1.79655L35.5719 1.97032C35.0901 2.04024 34.6897 2.37772 34.5393 2.84071C34.3889 3.30371 34.5144 3.81189 34.863 4.15176L35.7282 4.99504Z" fill="#213551"/>
<path d="M24.7791 4.99504L24.5748 6.18586C24.4926 6.66574 24.6897 7.15073 25.0835 7.43671C25.3064 7.59871 25.5702 7.68108 25.8355 7.68108C26.039 7.68108 26.2434 7.63248 26.4305 7.53425L27.5001 6.97201L28.5695 7.53425C28.7578 7.63316 28.9604 7.67903 29.1682 7.68108C29.8746 7.68108 30.4471 7.10844 30.4471 6.40209C30.4471 6.29483 30.4339 6.19064 30.409 6.09122L30.2211 4.99521L31.0862 4.15193C31.4348 3.81206 31.5601 3.30388 31.4099 2.84088C31.2595 2.37789 30.8591 2.04041 30.3773 1.97049L29.1817 1.79672L28.6469 0.713163C28.4315 0.276432 27.9868 0 27.5001 0C27.0132 0 26.5687 0.276432 26.3531 0.712992L25.8183 1.79655L24.6227 1.97032C24.141 2.04024 23.7407 2.37772 23.5903 2.84071C23.4399 3.30371 23.5654 3.81189 23.914 4.15176L24.7791 4.99504Z" fill="#213551"/>
<path d="M41.1429 8.95939L13.8579 8.95667C13.8579 8.95667 13.8579 8.95667 13.8575 8.95667C13.1793 8.95667 12.5286 9.22611 12.0489 9.70581C11.5692 10.1855 11.2996 10.8361 11.2996 11.5146V52.4422C11.2996 53.8549 12.4449 55.0002 13.8575 55.0002H41.1426C42.5553 55.0002 43.7006 53.8549 43.7006 52.4422V11.5174C43.7006 10.1047 42.5554 8.95956 41.1429 8.95939ZM38.5846 49.8841H30.058V47.3259C30.058 45.9132 28.9127 44.7679 27.5001 44.7679C26.0874 44.7679 24.9421 45.9132 24.9421 47.3259V49.8841H16.4155V14.0728L38.5846 14.075V49.8841Z" fill="#213551"/>
</g>
<defs>
<clipPath id="clip0_12_11">
<rect width="55" height="55" fill="white"/>
</clipPath>
</defs>
</svg>
