<svg width="18" height="18" viewBox="0 0 18 18" fill="none" xmlns="http://www.w3.org/2000/svg">
<g clip-path="url(#clip0_116_29)">
<path d="M9 0H8.18831V4.27975H9.81116V1.66775C13.5298 2.07263 16.3761 5.20462 16.3761 9.00005C16.3761 13.0679 13.0669 16.377 9 16.377C4.93298 16.377 1.62394 13.0679 1.62394 9.00005C1.62394 7.33517 2.16493 5.7642 3.18783 4.45742L3.47384 4.09306L2.19524 3.09246L1.90985 3.45686C0.660422 5.05216 0 6.96915 0 9C0 13.9624 4.03717 18 9 18C13.9624 18 18 13.963 18 9C18 4.03717 13.9624 0 9 0Z" fill="white"/>
<path d="M7.70635 10.3789C8.00038 10.7315 8.41354 10.9479 8.86864 10.9886C8.92119 10.9936 8.9737 10.9961 9.02532 10.9961C9.90341 10.9961 10.6538 10.3099 10.7326 9.43499C10.7739 8.97927 10.635 8.53403 10.3413 8.18108C10.0473 7.82813 9.63443 7.61134 9.17809 7.56978C9.02808 7.55665 8.87593 7.56462 8.71425 7.59639L3.7572 3.39551L7.39856 8.74681C7.35277 8.88005 7.32491 9.00438 7.31392 9.12543C7.27272 9.58105 7.41205 10.0264 7.70635 10.3789Z" fill="white"/>
</g>
<defs>
<clipPath id="clip0_116_29">
<rect width="18" height="18" fill="white"/>
</clipPath>
</defs>
</svg>
