<svg width="18" height="18" viewBox="0 0 18 18" fill="none" xmlns="http://www.w3.org/2000/svg">
<path d="M9.62306 0.692261C10.7654 0.692261 11.6654 1.59226 11.6654 2.73457C11.6654 3.87688 10.7307 4.77688 9.62306 4.77688C8.51536 4.77688 7.58075 3.87688 7.58075 2.73457C7.58075 1.59226 8.48075 0.692261 9.62306 0.692261Z" fill="white"/>
<path d="M14.8846 6.2654C14.4692 6.23079 14.0884 6.50771 14.0538 6.88848L13.8461 8.89617C13.7769 8.89617 13.7423 9.00002 13.6731 9.00002H11.7692L10.4538 6.68079C10.35 6.47309 10.1423 6.30002 9.89998 6.2654L7.89229 5.98848C7.54614 5.95386 7.19998 6.12694 7.06152 6.47309L5.53845 10.3846C5.4346 10.6962 5.57306 11.0077 5.84998 11.1808L9.58845 13.7423L9.89998 16.65C9.9346 17.0308 10.2808 17.3077 10.6615 17.3077C11.1115 17.3077 11.4577 16.9616 11.4231 16.5462L11.0769 12.9808C11.0769 12.8077 10.9731 12.6346 10.8 12.4962L8.75768 10.2116L9.51922 8.34232L10.4192 9.90002C10.5577 10.1077 10.8 10.35 11.0769 10.35H13.7077L12.9461 16.5808C12.9115 16.9616 13.1884 17.2731 13.6038 17.3077C13.6384 17.3077 13.6731 17.2731 13.6731 17.2731C14.0538 17.2731 14.3654 16.9962 14.4346 16.6154L15.5769 6.99232C15.6115 6.64617 15.3 6.30002 14.8846 6.2654Z" fill="white"/>
<path d="M4.22308 9.58842L5.50385 6.29996C5.57308 6.09227 5.67693 5.88458 5.81539 5.67688L5.64231 5.64227C4.53462 5.50381 3.49616 6.1615 3.15 7.16535L2.4577 8.96535C2.31923 9.34612 2.52693 9.79612 2.94231 9.89996L3.25385 9.96919C3.66923 10.1423 4.08462 9.93458 4.22308 9.58842Z" fill="white"/>
<path d="M4.70772 12.1846L3.15003 16.823C3.0808 17.0653 3.25387 17.273 3.49618 17.273H4.36156C4.6731 17.273 4.98464 17.0653 5.08849 16.7884L6.61156 13.4307L4.8808 12.3576C4.84618 12.2884 4.77695 12.2192 4.70772 12.1846Z" fill="white"/>
</svg>
