<svg width="28" height="28" viewBox="0 0 28 28" fill="none" xmlns="http://www.w3.org/2000/svg">
<path d="M14 0C6.26927 0 0 6.29537 0 14.0583C0 21.0189 5.04683 26.7862 11.6644 27.904V16.9934H8.2839V13.0639H11.6644V10.17C11.6644 6.80969 13.7063 4.9787 16.6907 4.9787C18.118 4.9787 19.3473 5.08842 19.7093 5.12957V8.64071H17.64C16.0146 8.64071 15.7005 9.41562 15.7005 10.554V13.0639H19.5727L19.0673 16.9934H15.7005V28C22.6254 27.1565 28 21.2383 28 14.0583C28 6.29537 21.7307 0.0068644 14 0.0068644V0Z" fill="#213551"/>
</svg>
