<svg width="28" height="28" viewBox="0 0 28 28" fill="none" xmlns="http://www.w3.org/2000/svg">
<path d="M16.6804 14.0002C16.6804 15.4779 15.4776 16.6806 14 16.6806C12.5223 16.6806 11.3196 15.4779 11.3196 14.0002C11.3196 12.5226 12.5223 11.3198 14 11.3198C15.4776 11.3198 16.6804 12.5226 16.6804 14.0002Z" fill="#213551"/>
<path d="M20.2679 9.25798C20.1373 8.90746 19.9311 8.59131 19.6699 8.33014C19.4087 8.0621 19.0926 7.85592 18.7421 7.7322C18.4603 7.62224 18.0342 7.49166 17.2507 7.45729C16.4053 7.41606 16.151 7.40918 13.9998 7.40918C11.8555 7.40918 11.6012 7.41606 10.7489 7.45729C9.96543 7.49166 9.53932 7.62224 9.25754 7.7322C8.90702 7.86279 8.59086 8.06897 8.3297 8.33014C8.06165 8.59131 7.85547 8.90746 7.72488 9.25798C7.61491 9.53977 7.48433 9.96587 7.44997 10.7494C7.40873 11.5947 7.40186 11.849 7.40186 14.0002C7.40186 16.1446 7.40873 16.3989 7.44997 17.2511C7.48433 18.0346 7.61491 18.4607 7.72488 18.7425C7.85547 19.093 8.06165 19.4092 8.32282 19.6703C8.58398 19.9384 8.90014 20.1446 9.25066 20.2683C9.53244 20.3782 9.95855 20.5088 10.7421 20.5432C11.5874 20.5844 11.8417 20.5913 13.9929 20.5913C16.1373 20.5913 16.3916 20.5844 17.2438 20.5432C18.0273 20.5088 18.4534 20.3782 18.7352 20.2683C19.4362 20.0002 19.9929 19.4435 20.261 18.7425C20.3709 18.4607 20.5015 18.0346 20.5359 17.2511C20.5771 16.4057 20.584 16.1514 20.584 14.0002C20.584 11.8559 20.5771 11.6016 20.5359 10.7494C20.5015 9.96587 20.3709 9.53977 20.261 9.25798H20.2679ZM13.9998 18.1308C11.718 18.1308 9.86921 16.282 9.86921 14.0002C9.86921 11.7185 11.718 9.86965 13.9998 9.86965C16.2816 9.86965 18.1304 11.7185 18.1304 14.0002C18.1304 16.282 16.2816 18.1308 13.9998 18.1308ZM18.2885 10.6738C17.7524 10.6738 17.3263 10.2408 17.3263 9.71159C17.3263 9.17551 17.7593 8.74939 18.2885 8.74939C18.8245 8.74939 19.2507 9.18238 19.2507 9.71159C19.2507 10.2477 18.8177 10.6738 18.2885 10.6738Z" fill="#213551"/>
<path d="M14 0C6.26804 0 0 6.26804 0 14C0 21.732 6.26804 28 14 28C21.732 28 28 21.732 28 14C28 6.26804 21.732 0 14 0ZM21.9931 17.3127C21.9519 18.1718 21.8213 18.756 21.622 19.2646C21.2027 20.3436 20.3505 21.1959 19.2715 21.6151C18.7629 21.8144 18.1787 21.9519 17.3196 21.9863C16.4605 22.0275 16.1856 22.0344 14.0069 22.0344C11.8213 22.0344 11.5464 22.0275 10.6942 21.9863C9.84192 21.945 9.25086 21.8144 8.74227 21.6151C8.20619 21.4158 7.71821 21.0997 7.31958 20.6873C6.90721 20.2887 6.59106 19.8007 6.39175 19.2646C6.19243 18.756 6.05497 18.1718 6.02061 17.3127C5.97937 16.4536 5.97249 16.1787 5.97249 14C5.97249 11.8144 5.97937 11.5395 6.02061 10.6873C6.06184 9.82817 6.19243 9.24398 6.39175 8.73539C6.59106 8.19931 6.90721 7.71133 7.31958 7.31271C7.71821 6.90033 8.20619 6.5842 8.74227 6.38489C9.25086 6.18557 9.83505 6.04811 10.6942 6.01375C11.5533 5.97251 11.8282 5.96563 14.0069 5.96563C16.1924 5.96563 16.4673 5.97251 17.3196 6.01375C18.1787 6.05498 18.7629 6.18557 19.2715 6.38489C19.8075 6.5842 20.2955 6.90033 20.6942 7.31271C21.0997 7.71133 21.4227 8.19931 21.622 8.73539C21.8213 9.24398 21.9588 9.82817 21.9931 10.6873C22.0344 11.5464 22.0412 11.8213 22.0412 14C22.0412 16.1856 22.0344 16.4605 21.9931 17.3127Z" fill="#213551"/>
</svg>
