<svg width="28" height="28" viewBox="0 0 28 28" fill="none" xmlns="http://www.w3.org/2000/svg">
<path fill-rule="evenodd" clip-rule="evenodd" d="M28 14C28 6.2685 21.7324 0 14 0C6.26763 0 0 6.26859 0 14C0 21.7315 6.26753 28 14 28C21.7324 28 28 21.7316 28 14ZM10.5106 19.236H7.88903V10.4982H10.5106V19.236ZM14.8839 11.6857C15.6914 10.6601 16.8298 10.1955 18.1021 10.1955C19.3752 10.1955 21.0062 10.8307 21.0063 14.2757V19.2352H18.3847V14.4708C18.3847 13.4934 18.1012 12.516 16.9515 12.516C15.8018 12.516 14.8839 13.4934 14.8839 14.4953V19.2361H12.2527V10.4694H14.8839V11.6857ZM10.5001 8.31244C10.5001 9.03696 9.91205 9.62498 9.18754 9.62498C8.46303 9.62498 7.875 9.03705 7.875 8.31254C7.875 7.58803 8.46303 7 9.18754 7C9.91205 7 10.5001 7.58793 10.5001 8.31244Z" fill="#213551"/>
</svg>
