<svg width="28" height="28" viewBox="0 0 28 28" fill="none" xmlns="http://www.w3.org/2000/svg">
<path fill-rule="evenodd" clip-rule="evenodd" d="M28 14C28 21.732 21.732 28 14 28C6.26801 28 0 21.732 0 14C0 6.26801 6.26801 0 14 0C21.732 0 28 6.26801 28 14ZM20.8613 9.01139C21.607 8.92236 22.3163 8.72426 22.9766 8.43124C22.4814 9.17176 21.8584 9.81819 21.1366 10.3403C21.1443 10.4983 21.1478 10.6569 21.1478 10.8167C21.1478 15.6834 17.443 21.2954 10.669 21.2954C8.58909 21.2954 6.65357 20.6852 5.02344 19.6399C5.31171 19.6747 5.60535 19.6924 5.90247 19.6924C7.62748 19.6924 9.21573 19.1034 10.4762 18.1153C8.86505 18.0853 7.50488 17.0205 7.0362 15.5578C7.26139 15.6002 7.49191 15.6227 7.7295 15.6227C8.06555 15.6227 8.39038 15.5784 8.6999 15.4936C7.01495 15.1551 5.74564 13.6671 5.74564 11.8825V11.836C6.25707 12.1204 6.82916 12.2783 7.41408 12.2964C6.426 11.6361 5.77573 10.5089 5.77573 9.23131C5.77573 8.55631 5.95728 7.92367 6.27445 7.37955C8.09089 9.60748 10.8046 11.0737 13.8655 11.2275C13.8031 10.9575 13.7707 10.6763 13.7707 10.388C13.7707 8.35347 15.4197 6.70508 17.4531 6.70508C18.5124 6.70508 19.4699 7.15194 20.1414 7.86767C20.9665 7.70561 21.7577 7.40331 22.4807 6.97391C22.2054 7.83345 21.6223 8.55565 20.8613 9.01139Z" fill="#213551"/>
</svg>
