<svg width="28" height="28" viewBox="0 0 28 28" fill="none" xmlns="http://www.w3.org/2000/svg">
<path d="M12.448 16.6254L16.9978 13.9999L12.448 11.3745V16.6254Z" fill="#213551"/>
<path d="M14 0C6.26803 0 0 6.26804 0 14C0 21.732 6.26803 28 14 28C21.7319 28 28 21.732 28 14C28 6.26804 21.7319 0 14 0ZM22.7491 14.0137C22.7491 14.0137 22.7491 16.8522 22.3918 18.2199C22.1924 18.9691 21.6014 19.5601 20.8522 19.7595C19.4845 20.1168 14.0069 20.1168 14.0069 20.1168C14.0069 20.1168 8.54296 20.1168 7.16152 19.7388C6.41238 19.5395 5.82132 18.9485 5.62201 18.1993C5.26462 16.8454 5.2646 13.9931 5.2646 13.9931C5.2646 13.9931 5.26462 11.1546 5.62201 9.78694C5.82132 9.0378 6.42612 8.433 7.16152 8.23369C8.52921 7.8763 14.0069 7.87628 14.0069 7.87628C14.0069 7.87628 19.4845 7.8763 20.8522 8.2543C21.6014 8.45362 22.1924 9.04468 22.3918 9.79382C22.7698 11.1615 22.7491 14.0137 22.7491 14.0137Z" fill="#213551"/>
</svg>
