<svg width="30" height="30" viewBox="0 0 30 30" fill="none" xmlns="http://www.w3.org/2000/svg">
<g clip-path="url(#clip0_25_190)">
<path d="M15 0H13.6472V7.13291H16.3519V2.77958C22.5497 3.45438 27.2934 8.67436 27.2934 15.0001C27.2934 21.7798 21.7781 27.2951 15 27.2951C8.22163 27.2951 2.70657 21.7798 2.70657 15.0001C2.70657 12.2253 3.60821 9.607 5.31305 7.42903L5.78974 6.82177L3.65874 5.15409L3.18309 5.76144C1.1007 8.42026 0 11.6152 0 15C0 23.2706 6.72862 30 15 30C23.2706 30 30 23.2716 30 15C30 6.72862 23.2706 0 15 0Z" fill="white"/>
<path d="M12.8439 17.2981C13.334 17.8856 14.0226 18.2464 14.7811 18.3141C14.8687 18.3225 14.9562 18.3267 15.0422 18.3267C16.5057 18.3267 17.7563 17.183 17.8877 15.7249C17.9564 14.9653 17.725 14.2233 17.2355 13.635C16.7455 13.0468 16.0574 12.6854 15.2968 12.6162C15.0468 12.5943 14.7932 12.6076 14.5238 12.6605L6.26202 5.65906L12.331 14.5779C12.2546 14.8 12.2082 15.0072 12.1899 15.2089C12.1212 15.9683 12.3534 16.7106 12.8439 17.2981Z" fill="white"/>
</g>
<defs>
<clipPath id="clip0_25_190">
<rect width="30" height="30" fill="white"/>
</clipPath>
</defs>
</svg>
