<svg width="44" height="44" viewBox="0 0 44 44" fill="none" xmlns="http://www.w3.org/2000/svg">
<g clip-path="url(#clip0_30_27)">
<path d="M0.35498 4.25804L7.45173 1.41943V7.0968L0.35498 4.25804Z" fill="#7EEBFF"/>
<path d="M41.3798 3.54845L37.8308 4.96783H33.7096C32.5358 4.96783 31.5805 5.92312 31.5805 7.09689V9.93565C31.5805 10.1962 31.6345 10.4424 31.7203 10.6737C31.2208 9.79929 30.4273 9.1045 29.4515 8.75964V7.80658C29.4516 3.50225 25.9494 0 21.6452 0C17.341 0 13.8388 3.50225 13.8388 7.80643V8.75875C12.1639 9.35145 11.0001 10.9567 11.0001 12.7741C11.0001 13.8996 11.438 14.9507 12.2194 15.7427C11.8844 16.3601 11.7098 17.0407 11.7098 17.7418C11.7098 18.7325 12.0469 19.672 12.6899 20.4521L11.6161 20.9403L11.1818 16.1528C11.0618 14.8413 10.1103 13.8123 8.87108 13.5519V1.41938H7.4517V13.6109C6.22681 13.9637 5.32263 15.082 5.32263 16.4199V25.3838C5.32263 27.4312 6.98896 29.0968 9.03561 29.0968C9.48196 29.0968 9.92056 29.0174 10.3399 28.8605L14.5483 27.2822V44H15.9677V37.6129H27.3224V44H28.7418V27.2821L32.9509 28.8603C33.3697 29.0171 33.8081 29.0967 34.2546 29.0967C36.3013 29.0967 37.9676 27.4311 37.9676 25.3837V16.4191C37.9676 15.7138 37.7099 15.0573 37.2579 14.5272V12.0644H37.8306L41.3797 13.4838H43.645V3.54845H41.3798ZM33.0001 7.09674C33.0001 6.70569 33.318 6.38705 33.7098 6.38705H37.2581V10.645H33.7096C33.3178 10.645 32.9999 10.3264 32.9999 9.93535L33.0001 7.09674ZM32.2904 12.7741C32.2904 12.1857 32.1577 11.6258 31.9363 11.1093C32.1889 11.4896 32.563 11.7778 33.0001 11.9339V14.3205C32.4983 14.8059 32.1732 15.4474 32.1087 16.1536L31.6744 20.9403L30.6035 20.4534C31.2358 19.6919 31.5807 18.7431 31.5807 17.7418C31.5807 17.0406 31.4062 16.3601 31.0712 15.7427C31.8525 14.9507 32.2904 13.8997 32.2904 12.7741ZM13.9572 19.7452C13.4228 19.2095 13.1291 18.4977 13.1291 17.7418C13.1291 17.1328 13.3306 16.5439 13.7124 16.0392L14.1425 15.4694L13.5698 15.0421C12.8395 14.4963 12.4194 13.6695 12.4194 12.774C12.4194 11.4291 13.3747 10.2596 14.6896 9.99273L15.258 9.87708V7.80643C15.258 4.28496 18.123 1.41938 21.645 1.41938C25.1671 1.41938 28.0321 4.28511 28.0321 7.80643V9.87723L28.6005 9.99288C29.9156 10.2596 30.8707 11.4292 30.8707 12.7741C30.8707 13.6698 30.4506 14.4965 29.7196 15.0422L29.1469 15.4695L29.577 16.0394C29.9595 16.544 30.161 17.133 30.161 17.7419C30.161 18.4977 29.8673 19.2096 29.3691 19.7112L29.2321 19.8305L25.1933 17.9945V16.4893C26.4892 15.4476 27.3224 13.853 27.3224 12.0646V7.80643H25.903C24.7293 7.80643 23.774 6.85114 23.774 5.67737H22.3549C22.3549 6.85114 21.3996 7.80643 20.2258 7.80643H15.9678V12.0644C15.9678 13.8528 16.8009 15.4482 18.0969 16.4892V17.9944L14.0566 19.8311L13.9572 19.7452ZM21.6452 16.3226C19.2969 16.3226 17.3872 14.4129 17.3872 12.0646V9.22581H20.226C21.3856 9.22581 22.4167 8.66665 23.0647 7.80435C23.7127 8.66665 24.7439 9.22581 25.9035 9.22581V12.0646C25.9033 14.4129 23.9935 16.3226 21.6452 16.3226ZM19.5161 17.3239C20.174 17.5914 20.8921 17.7419 21.6452 17.7419C22.3982 17.7419 23.1163 17.5914 23.7743 17.3239V18.4516V18.9087V19.1613C23.7743 20.3351 22.819 21.2904 21.6452 21.2904C20.4714 21.2904 19.5161 20.3351 19.5161 19.1613V18.9087V18.4516V17.3239ZM18.1344 19.5366C18.3254 21.315 19.817 22.7095 21.6452 22.7095C23.4734 22.7095 24.965 21.315 25.1559 19.5366L25.8422 19.8481L21.9006 28.3868H21.3896L17.4488 19.8481L18.1344 19.5366ZM34.2548 27.6773C33.9788 27.6773 33.7077 27.6283 33.4493 27.5311L27.3226 25.2339V36.1934H15.9678V25.2339L9.84187 27.5311C9.58286 27.6283 9.31177 27.6773 9.03561 27.6773C7.77093 27.6773 6.74201 26.6482 6.74201 25.3837V16.4191C6.74201 15.8805 7.02666 15.4093 7.4517 15.1403V16.3226H8.87108V15.0352C9.3608 15.251 9.71624 15.7136 9.7681 16.2814L10.3841 23.0595L16.1565 20.4358L20.4814 29.8064H22.8084L27.1339 20.4358L32.9063 23.0595L33.4642 16.9238C33.8545 17.4184 34.4521 17.7419 35.129 17.7419C35.6761 17.7419 36.1707 17.5284 36.5484 17.1884V25.3837C36.5484 26.6484 35.5193 27.6773 34.2548 27.6773ZM35.8387 15.6129C35.8387 16.0039 35.5208 16.3226 35.129 16.3226C34.7372 16.3226 34.4193 16.0039 34.4193 15.6129V12.0644H35.8387V15.6129ZM42.2257 12.0644H41.6523L38.6773 10.8743V6.15784L41.6523 4.96768H42.2257V12.0644Z" fill="#213551"/>
<path d="M22.3549 41.1611H20.9355V43.9999H22.3549V41.1611Z" fill="#213551"/>
<path d="M24.484 34.774H18.8065C18.0237 34.774 17.3871 34.1375 17.3871 33.3546V29.8063C17.3871 29.0236 18.0236 28.387 18.8065 28.387H24.4838C25.2665 28.387 25.9032 29.0235 25.9032 29.8063V33.3548C25.9034 34.1375 25.2667 34.774 24.484 34.774Z" fill="#7EEBFF"/>
</g>
<defs>
<clipPath id="clip0_30_27">
<rect width="44" height="44" fill="white"/>
</clipPath>
</defs>
</svg>
