<svg width="44" height="44" viewBox="0 0 44 44" fill="none" xmlns="http://www.w3.org/2000/svg">
<g clip-path="url(#clip0_30_108)">
<path d="M5.97459 19.5273H38.0255C38.4133 19.5273 38.7276 19.2129 38.7276 18.8252C38.7276 18.4374 38.4133 18.123 38.0255 18.123H5.97459C5.58683 18.123 5.27246 18.4374 5.27246 18.8252C5.27246 19.2129 5.58683 19.5273 5.97459 19.5273Z" fill="#213551"/>
<path d="M43.3887 21.4032L41.5734 18.5451L40.8935 15.8139H42.3617C42.7495 15.8139 43.0638 15.4995 43.0638 15.1118C43.0638 14.724 42.7495 14.4096 42.3617 14.4096H40.5439L38.7122 7.05182C38.2574 5.22497 36.4265 3.79395 34.5439 3.79395H9.45607C7.57352 3.79395 5.74256 5.22497 5.28777 7.05182L3.45606 14.4096H1.6383C1.25054 14.4096 0.93617 14.724 0.93617 15.1118C0.93617 15.4995 1.25054 15.8139 1.6383 15.8139H3.1064L2.42646 18.5451L0.611226 21.4033C0.262783 21.9521 0 22.8562 0 23.5061V33.6765C0 34.0643 0.314366 34.3786 0.702128 34.3786H0.93617V39.5042C0.93617 39.8919 1.25054 40.2063 1.6383 40.2063H9.02571C9.41347 40.2063 9.72784 39.8919 9.72784 39.5042V36.485C9.72784 36.0972 9.41347 35.7829 9.02571 35.7829C8.63795 35.7829 8.32358 36.0972 8.32358 36.485V38.802H2.34043V34.3786H12.3525C12.3545 34.3786 31.6577 34.3786 31.6577 34.3786C31.6641 34.3786 41.6596 34.3786 41.6596 34.3786V38.802H35.6764V36.485C35.6764 36.0972 35.362 35.7829 34.9743 35.7829C34.5865 35.7829 34.2722 36.0972 34.2722 36.485V39.5042C34.2722 39.8919 34.5865 40.2063 34.9743 40.2063H42.3617C42.7495 40.2063 43.0638 39.8919 43.0638 39.5042V34.3786H43.2979C43.6856 34.3786 44 34.0643 44 33.6765V23.5061C44 22.8562 43.7372 21.9521 43.3887 21.4032ZM1.40426 23.5061C1.40426 23.1231 1.5913 22.4795 1.7967 22.1562L3.67297 19.2018C3.71341 19.1381 3.74337 19.0682 3.76163 18.995L6.65046 7.39099C6.94638 6.20234 8.23118 5.1982 9.45607 5.1982H34.5439C35.7688 5.1982 37.0537 6.20243 37.3495 7.39109L40.2383 18.9949C40.2565 19.0681 40.2865 19.138 40.3269 19.2017L42.2032 22.1561C42.4086 22.4795 42.5956 23.1231 42.5956 23.5061V32.9744H32.1354L30.4396 28.7309C30.333 28.4642 30.0748 28.2893 29.7876 28.2893H14.2124C13.9252 28.2893 13.667 28.4642 13.5604 28.7309L11.8646 32.9744H1.40426V23.5061ZM30.6233 32.9744H13.3767L14.6879 29.6936H29.312L30.6233 32.9744Z" fill="#213551"/>
<circle cx="36.9599" cy="26.4001" r="3.52" fill="#7EEBFF"/>
<circle cx="7.04002" cy="26.4001" r="3.52" fill="#7EEBFF"/>
</g>
<defs>
<clipPath id="clip0_30_108">
<rect width="44" height="44" fill="white"/>
</clipPath>
</defs>
</svg>
