<svg width="44" height="44" viewBox="0 0 44 44" fill="none" xmlns="http://www.w3.org/2000/svg">
<g clip-path="url(#clip0_30_118)">
<path d="M0 43.9999H10.6452V42.5806H1.41938V19.1612H10.6452V17.7419H0V43.9999Z" fill="#213551"/>
<path d="M33.3547 17.7419V19.1612H42.5806V42.5806H33.3547V43.9999H44V17.7419H33.3547Z" fill="#213551"/>
<path d="M7.80646 21.2903H3.54846V25.5483H7.80646V21.2903ZM6.38708 24.1291H4.9677V22.7097H6.38708V24.1291Z" fill="#213551"/>
<path d="M7.80646 27.6775H3.54846V31.9355H7.80646V27.6775ZM6.38708 30.5163H4.9677V29.0969H6.38708V30.5163Z" fill="#213551"/>
<path d="M3.54846 38.3227H7.80646V34.0647H3.54846V38.3227ZM4.9677 35.4839H6.38708V36.9033H4.9677V35.4839Z" fill="#213551"/>
<path d="M40.4515 21.2903H36.1935V25.5483H40.4515V21.2903ZM39.0322 24.1291H37.6129V22.7097H39.0322V24.1291Z" fill="#213551"/>
<path d="M36.1935 31.9355H40.4515V27.6775H36.1935V31.9355ZM37.6129 29.0967H39.0322V30.5161H37.6129V29.0967Z" fill="#213551"/>
<path d="M36.1935 38.3227H40.4515V34.0647H36.1935V38.3227ZM37.6129 35.4839H39.0322V36.9033H37.6129V35.4839Z" fill="#213551"/>
<path d="M34.0645 44.0001H9.93555V5.67749H34.0646L34.0645 44.0001Z" fill="#7EEBFF"/>
<path d="M33.3548 1.41938V0H31.9356H31.2259H12.7742H12.0645H10.6453V1.41938H12.0645V6.38708H13.4839V1.41938H30.5162V6.38708H31.9356V1.41938H33.3548Z" fill="#213551"/>
<path d="M17.742 9.22583H13.4839V13.4838H17.7419L17.742 9.22583ZM16.3227 12.0644H14.9033V10.6451H16.3227V12.0644Z" fill="#213551"/>
<path d="M24.1291 9.22583H19.8711V13.4838H24.1291V9.22583ZM22.7097 12.0644H21.2903V10.6451H22.7097V12.0644Z" fill="#213551"/>
<path d="M30.5162 9.22583H26.2581V13.4838H30.5161L30.5162 9.22583ZM29.0968 12.0644H27.6774V10.6451H29.0968V12.0644Z" fill="#213551"/>
<path d="M29.0968 31.2258H14.9032H14.1936H12.7742V32.6452H14.1936V44H29.8065V32.6452H31.2259V31.2258H29.8065H29.0968ZM15.6129 32.6452H21.2903V35.484H20.5806C19.4069 35.484 18.4516 36.4393 18.4516 37.6131C18.4516 38.7868 19.4069 39.7421 20.5806 39.7421H21.2903V42.5809H15.6129V32.6452ZM21.2903 38.3226H20.5806C20.1896 38.3226 19.8709 38.0047 19.8709 37.6129C19.8709 37.2211 20.1896 36.9032 20.5806 36.9032H21.2903V38.3226ZM22.7097 36.9032H23.4194C23.8105 36.9032 24.1291 37.2211 24.1291 37.6129C24.1291 38.0047 23.8105 38.3226 23.4194 38.3226H22.7097V36.9032ZM28.3871 42.5806H22.7097V39.7418H23.4194C24.5932 39.7418 25.5485 38.7865 25.5485 37.6128C25.5485 36.439 24.5932 35.4837 23.4194 35.4837H22.7097V32.6449H28.3871V42.5806Z" fill="#213551"/>
<path d="M13.4839 19.871H17.7419V15.613H13.4839V19.871ZM14.9033 17.0324H16.3227V18.4518H14.9033V17.0324Z" fill="#213551"/>
<path d="M19.871 19.871H24.129V15.613H19.871V19.871ZM21.2904 17.0324H22.7097V18.4518H21.2904V17.0324Z" fill="#213551"/>
<path d="M26.2581 19.871H30.5161V15.613H26.2581V19.871ZM27.6774 17.0324H29.0968V18.4518H27.6774V17.0324Z" fill="#213551"/>
<path d="M13.4839 26.258H17.7419V22H13.4839V26.258ZM14.9033 23.4194H16.3227V24.8388H14.9033V23.4194Z" fill="#213551"/>
<path d="M19.871 26.258H24.129V22H19.871V26.258ZM21.2904 23.4194H22.7097V24.8388H21.2904V23.4194Z" fill="#213551"/>
<path d="M26.2581 26.258H30.5161V22H26.2581V26.258ZM27.6774 23.4194H29.0968V24.8388H27.6774V23.4194Z" fill="#213551"/>
<path d="M28.3871 28.387H12.7742V29.8063H28.3871V28.387Z" fill="#213551"/>
<path d="M31.2259 28.387H29.8065V29.8063H31.2259V28.387Z" fill="#213551"/>
</g>
<defs>
<clipPath id="clip0_30_118">
<rect width="44" height="44" fill="white"/>
</clipPath>
</defs>
</svg>
