<svg width="44" height="44" viewBox="0 0 44 44" fill="none" xmlns="http://www.w3.org/2000/svg">
<g clip-path="url(#clip0_30_158)">
<path d="M19.7633 31.6068L13.2122 25.0557C13.012 24.8218 12.9074 24.5211 12.9192 24.2135C12.9311 23.9059 13.0586 23.6141 13.2763 23.3964C13.494 23.1787 13.7858 23.0512 14.0934 23.0393C14.401 23.0275 14.7017 23.1321 14.9356 23.3323L19.7633 28.1112L30.3233 17.5512C30.5571 17.351 30.8579 17.2464 31.1655 17.2582C31.4731 17.2701 31.7649 17.3976 31.9826 17.6153C32.2003 17.833 32.3278 18.1248 32.3397 18.4324C32.3515 18.74 32.2469 19.0407 32.0467 19.2745L19.7633 31.6068Z" fill="#7EEBFF"/>
<path d="M39.4166 7.33325H35.4444V9.7777H39.1111V36.6666H4.88885V9.7777H8.55552V7.33325H4.58329C4.29758 7.33803 4.01561 7.39904 3.75349 7.51281C3.49136 7.62657 3.25421 7.79086 3.05559 7.9963C2.85697 8.20173 2.70076 8.44428 2.5959 8.71009C2.49103 8.9759 2.43955 9.25977 2.44441 9.54547V36.8988C2.43955 37.1845 2.49103 37.4684 2.5959 37.7342C2.70076 38 2.85697 38.2426 3.05559 38.448C3.25421 38.6534 3.49136 38.8177 3.75349 38.9315C4.01561 39.0452 4.29758 39.1063 4.58329 39.111H39.4166C39.7023 39.1063 39.9843 39.0452 40.2464 38.9315C40.5086 38.8177 40.7457 38.6534 40.9443 38.448C41.143 38.2426 41.2992 38 41.404 37.7342C41.5089 37.4684 41.5604 37.1845 41.5555 36.8988V9.54547C41.5604 9.25977 41.5089 8.9759 41.404 8.71009C41.2992 8.44428 41.143 8.20173 40.9443 7.9963C40.7457 7.79086 40.5086 7.62657 40.2464 7.51281C39.9843 7.39904 39.7023 7.33803 39.4166 7.33325Z" fill="#213551"/>
<path d="M12.2222 12.2221C12.5464 12.2221 12.8573 12.0933 13.0865 11.8641C13.3157 11.6349 13.4444 11.324 13.4444 10.9999V3.66656C13.4444 3.3424 13.3157 3.03153 13.0865 2.80232C12.8573 2.57311 12.5464 2.44434 12.2222 2.44434C11.8981 2.44434 11.5872 2.57311 11.358 2.80232C11.1288 3.03153 11 3.3424 11 3.66656V10.9999C11 11.324 11.1288 11.6349 11.358 11.8641C11.5872 12.0933 11.8981 12.2221 12.2222 12.2221Z" fill="#213551"/>
<path d="M31.7778 12.2221C32.1019 12.2221 32.4128 12.0933 32.642 11.8641C32.8712 11.6349 33 11.324 33 10.9999V3.66656C33 3.3424 32.8712 3.03153 32.642 2.80232C32.4128 2.57311 32.1019 2.44434 31.7778 2.44434C31.4536 2.44434 31.1427 2.57311 30.9135 2.80232C30.6843 3.03153 30.5555 3.3424 30.5555 3.66656V10.9999C30.5555 11.324 30.6843 11.6349 30.9135 11.8641C31.1427 12.0933 31.4536 12.2221 31.7778 12.2221Z" fill="#213551"/>
<path d="M28.1111 7.33325H15.8889V9.7777H28.1111V7.33325Z" fill="#213551"/>
</g>
<defs>
<clipPath id="clip0_30_158">
<rect width="44" height="44" fill="white"/>
</clipPath>
</defs>
</svg>
